solid OpenSCAD_Model
  facet normal -1 0 0
    outer loop
      vertex 0 0 0
      vertex 0 2.9 106.667
      vertex 0 2.9 0
    endloop
  endfacet
  facet normal -1 -0 0
    outer loop
      vertex 0 2.9 106.667
      vertex 0 0 0
      vertex 0 0 106.667
    endloop
  endfacet
  facet normal -1 0 0
    outer loop
      vertex 0 5.1 0
      vertex 0 8 106.667
      vertex 0 8 0
    endloop
  endfacet
  facet normal -1 -0 0
    outer loop
      vertex 0 8 106.667
      vertex 0 5.1 0
      vertex 0 5.1 106.667
    endloop
  endfacet
  facet normal -0 0 1
    outer loop
      vertex 5.1 2.9 106.667
      vertex 8 0 106.667
      vertex 8 2.9 106.667
    endloop
  endfacet
  facet normal 0 0 1
    outer loop
      vertex 8 0 106.667
      vertex 5.1 2.9 106.667
      vertex 5.1 0 106.667
    endloop
  endfacet
  facet normal -0 0 1
    outer loop
      vertex 0 2.9 106.667
      vertex 2.9 0 106.667
      vertex 2.9 2.9 106.667
    endloop
  endfacet
  facet normal 0 0 1
    outer loop
      vertex 2.9 0 106.667
      vertex 0 2.9 106.667
      vertex 0 0 106.667
    endloop
  endfacet
  facet normal -0 0 1
    outer loop
      vertex 5.1 8 106.667
      vertex 8 5.1 106.667
      vertex 8 8 106.667
    endloop
  endfacet
  facet normal 0 0 1
    outer loop
      vertex 8 5.1 106.667
      vertex 5.1 8 106.667
      vertex 5.1 5.1 106.667
    endloop
  endfacet
  facet normal -0 0 1
    outer loop
      vertex 0 8 106.667
      vertex 2.9 5.1 106.667
      vertex 2.9 8 106.667
    endloop
  endfacet
  facet normal 0 0 1
    outer loop
      vertex 2.9 5.1 106.667
      vertex 0 8 106.667
      vertex 0 5.1 106.667
    endloop
  endfacet
  facet normal 1 -0 0
    outer loop
      vertex 8 0 106.667
      vertex 8 2.9 0
      vertex 8 2.9 106.667
    endloop
  endfacet
  facet normal 1 0 0
    outer loop
      vertex 8 2.9 0
      vertex 8 0 106.667
      vertex 8 0 0
    endloop
  endfacet
  facet normal 1 -0 0
    outer loop
      vertex 8 5.1 106.667
      vertex 8 8 0
      vertex 8 8 106.667
    endloop
  endfacet
  facet normal 1 0 0
    outer loop
      vertex 8 8 0
      vertex 8 5.1 106.667
      vertex 8 5.1 0
    endloop
  endfacet
  facet normal 0 0 -1
    outer loop
      vertex 0 0 0
      vertex 2.9 2.9 0
      vertex 2.9 0 0
    endloop
  endfacet
  facet normal -0 0 -1
    outer loop
      vertex 2.9 2.9 0
      vertex 0 0 0
      vertex 0 2.9 0
    endloop
  endfacet
  facet normal 0 0 -1
    outer loop
      vertex 5.1 5.1 0
      vertex 8 8 0
      vertex 8 5.1 0
    endloop
  endfacet
  facet normal -0 0 -1
    outer loop
      vertex 8 8 0
      vertex 5.1 5.1 0
      vertex 5.1 8 0
    endloop
  endfacet
  facet normal 0 0 -1
    outer loop
      vertex 0 5.1 0
      vertex 2.9 8 0
      vertex 2.9 5.1 0
    endloop
  endfacet
  facet normal -0 0 -1
    outer loop
      vertex 2.9 8 0
      vertex 0 5.1 0
      vertex 0 8 0
    endloop
  endfacet
  facet normal 0 0 -1
    outer loop
      vertex 5.1 0 0
      vertex 8 2.9 0
      vertex 8 0 0
    endloop
  endfacet
  facet normal -0 0 -1
    outer loop
      vertex 8 2.9 0
      vertex 5.1 0 0
      vertex 5.1 2.9 0
    endloop
  endfacet
  facet normal 0 -1 0
    outer loop
      vertex 5.1 0 0
      vertex 8 0 106.667
      vertex 5.1 0 106.667
    endloop
  endfacet
  facet normal 0 -1 -0
    outer loop
      vertex 8 0 106.667
      vertex 5.1 0 0
      vertex 8 0 0
    endloop
  endfacet
  facet normal 0 -1 0
    outer loop
      vertex 0 0 0
      vertex 2.9 0 106.667
      vertex 0 0 106.667
    endloop
  endfacet
  facet normal 0 -1 -0
    outer loop
      vertex 2.9 0 106.667
      vertex 0 0 0
      vertex 2.9 0 0
    endloop
  endfacet
  facet normal 0 1 -0
    outer loop
      vertex 8 8 0
      vertex 5.1 8 106.667
      vertex 8 8 106.667
    endloop
  endfacet
  facet normal 0 1 0
    outer loop
      vertex 5.1 8 106.667
      vertex 8 8 0
      vertex 5.1 8 0
    endloop
  endfacet
  facet normal 0 1 -0
    outer loop
      vertex 2.9 8 0
      vertex 0 8 106.667
      vertex 2.9 8 106.667
    endloop
  endfacet
  facet normal 0 1 0
    outer loop
      vertex 0 8 106.667
      vertex 2.9 8 0
      vertex 0 8 0
    endloop
  endfacet
  facet normal 0 1 -0
    outer loop
      vertex 2.9 2.9 0
      vertex 0 2.9 106.667
      vertex 2.9 2.9 106.667
    endloop
  endfacet
  facet normal 0 1 0
    outer loop
      vertex 0 2.9 106.667
      vertex 2.9 2.9 0
      vertex 0 2.9 0
    endloop
  endfacet
  facet normal 0 1 -0
    outer loop
      vertex 8 2.9 0
      vertex 5.1 2.9 106.667
      vertex 8 2.9 106.667
    endloop
  endfacet
  facet normal 0 1 0
    outer loop
      vertex 5.1 2.9 106.667
      vertex 8 2.9 0
      vertex 5.1 2.9 0
    endloop
  endfacet
  facet normal 0 -1 0
    outer loop
      vertex 0 5.1 0
      vertex 2.9 5.1 106.667
      vertex 0 5.1 106.667
    endloop
  endfacet
  facet normal 0 -1 -0
    outer loop
      vertex 2.9 5.1 106.667
      vertex 0 5.1 0
      vertex 2.9 5.1 0
    endloop
  endfacet
  facet normal 0 -1 0
    outer loop
      vertex 5.1 5.1 0
      vertex 8 5.1 106.667
      vertex 5.1 5.1 106.667
    endloop
  endfacet
  facet normal 0 -1 -0
    outer loop
      vertex 8 5.1 106.667
      vertex 5.1 5.1 0
      vertex 8 5.1 0
    endloop
  endfacet
  facet normal 1 -0 0
    outer loop
      vertex 2.9 0 106.667
      vertex 2.9 2.9 0
      vertex 2.9 2.9 106.667
    endloop
  endfacet
  facet normal 1 0 0
    outer loop
      vertex 2.9 2.9 0
      vertex 2.9 0 106.667
      vertex 2.9 0 0
    endloop
  endfacet
  facet normal 1 -0 0
    outer loop
      vertex 2.9 5.1 106.667
      vertex 2.9 8 0
      vertex 2.9 8 106.667
    endloop
  endfacet
  facet normal 1 0 0
    outer loop
      vertex 2.9 8 0
      vertex 2.9 5.1 106.667
      vertex 2.9 5.1 0
    endloop
  endfacet
  facet normal -1 0 0
    outer loop
      vertex 5.1 0 0
      vertex 5.1 2.9 106.667
      vertex 5.1 2.9 0
    endloop
  endfacet
  facet normal -1 -0 0
    outer loop
      vertex 5.1 2.9 106.667
      vertex 5.1 0 0
      vertex 5.1 0 106.667
    endloop
  endfacet
  facet normal -1 0 0
    outer loop
      vertex 5.1 5.1 0
      vertex 5.1 8 106.667
      vertex 5.1 8 0
    endloop
  endfacet
  facet normal -1 -0 0
    outer loop
      vertex 5.1 8 106.667
      vertex 5.1 5.1 0
      vertex 5.1 5.1 106.667
    endloop
  endfacet
endsolid OpenSCAD_Model
