solid OpenSCAD_Model
  facet normal -1 0 0
    outer loop
      vertex 0 4 0
      vertex 0 3.2 1.2
      vertex 0 4 4
    endloop
  endfacet
  facet normal -1 0 0
    outer loop
      vertex 0 4 0
      vertex 0 0.799999 1.2
      vertex 0 3.2 1.2
    endloop
  endfacet
  facet normal -1 0 0
    outer loop
      vertex 0 0 0
      vertex 0 0.799999 1.2
      vertex 0 4 0
    endloop
  endfacet
  facet normal -1 0 0
    outer loop
      vertex 0 0 4
      vertex 0 0.799999 1.2
      vertex 0 0 0
    endloop
  endfacet
  facet normal -1 0 0
    outer loop
      vertex 0 0.799999 1.2
      vertex 0 0 4
      vertex 0 0.799999 4
    endloop
  endfacet
  facet normal -1 -0 0
    outer loop
      vertex 0 4 4
      vertex 0 3.2 1.2
      vertex 0 3.2 4
    endloop
  endfacet
  facet normal -0 0 1
    outer loop
      vertex 0 0.799999 4
      vertex 198.333 0 4
      vertex 198.333 0.799999 4
    endloop
  endfacet
  facet normal 0 0 1
    outer loop
      vertex 198.333 0 4
      vertex 0 0.799999 4
      vertex 0 0 4
    endloop
  endfacet
  facet normal -0 0 1
    outer loop
      vertex 0 4 4
      vertex 198.333 3.2 4
      vertex 198.333 4 4
    endloop
  endfacet
  facet normal 0 0 1
    outer loop
      vertex 198.333 3.2 4
      vertex 0 4 4
      vertex 0 3.2 4
    endloop
  endfacet
  facet normal 1 0 0
    outer loop
      vertex 198.333 0.799999 4
      vertex 198.333 0 4
      vertex 198.333 0.799999 1.2
    endloop
  endfacet
  facet normal 1 0 0
    outer loop
      vertex 198.333 3.2 1.2
      vertex 198.333 4 4
      vertex 198.333 3.2 4
    endloop
  endfacet
  facet normal 1 0 0
    outer loop
      vertex 198.333 4 4
      vertex 198.333 3.2 1.2
      vertex 198.333 4 0
    endloop
  endfacet
  facet normal 1 -0 0
    outer loop
      vertex 198.333 0.799999 1.2
      vertex 198.333 4 0
      vertex 198.333 3.2 1.2
    endloop
  endfacet
  facet normal 1 0 0
    outer loop
      vertex 198.333 0.799999 1.2
      vertex 198.333 0 0
      vertex 198.333 4 0
    endloop
  endfacet
  facet normal 1 0 0
    outer loop
      vertex 198.333 0 0
      vertex 198.333 0.799999 1.2
      vertex 198.333 0 4
    endloop
  endfacet
  facet normal 0 1 -0
    outer loop
      vertex 198.333 4 0
      vertex 0 4 4
      vertex 198.333 4 4
    endloop
  endfacet
  facet normal 0 1 0
    outer loop
      vertex 0 4 4
      vertex 198.333 4 0
      vertex 0 4 0
    endloop
  endfacet
  facet normal 0 0 -1
    outer loop
      vertex 0 0 0
      vertex 198.333 4 0
      vertex 198.333 0 0
    endloop
  endfacet
  facet normal -0 0 -1
    outer loop
      vertex 198.333 4 0
      vertex 0 0 0
      vertex 0 4 0
    endloop
  endfacet
  facet normal 0 -1 0
    outer loop
      vertex 0 0 0
      vertex 198.333 0 4
      vertex 0 0 4
    endloop
  endfacet
  facet normal 0 -1 -0
    outer loop
      vertex 198.333 0 4
      vertex 0 0 0
      vertex 198.333 0 0
    endloop
  endfacet
  facet normal 0 -1 0
    outer loop
      vertex 151 3.2 1.2
      vertex 165.667 3.2 3.2
      vertex 151 3.2 3.2
    endloop
  endfacet
  facet normal 0 -1 -0
    outer loop
      vertex 165.667 3.2 3.2
      vertex 151 3.2 1.2
      vertex 165.667 3.2 1.2
    endloop
  endfacet
  facet normal 0 -1 0
    outer loop
      vertex 134.333 3.2 1.2
      vertex 149 3.2 3.2
      vertex 134.333 3.2 3.2
    endloop
  endfacet
  facet normal 0 -1 -0
    outer loop
      vertex 149 3.2 3.2
      vertex 134.333 3.2 1.2
      vertex 149 3.2 1.2
    endloop
  endfacet
  facet normal 0 -1 0
    outer loop
      vertex 117.667 3.2 1.2
      vertex 132.333 3.2 3.2
      vertex 117.667 3.2 3.2
    endloop
  endfacet
  facet normal 0 -1 -0
    outer loop
      vertex 132.333 3.2 3.2
      vertex 117.667 3.2 1.2
      vertex 132.333 3.2 1.2
    endloop
  endfacet
  facet normal 0 -1 0
    outer loop
      vertex 101 3.2 1.2
      vertex 115.667 3.2 3.2
      vertex 101 3.2 3.2
    endloop
  endfacet
  facet normal 0 -1 -0
    outer loop
      vertex 115.667 3.2 3.2
      vertex 101 3.2 1.2
      vertex 115.667 3.2 1.2
    endloop
  endfacet
  facet normal 0 -1 0
    outer loop
      vertex 84.3333 3.2 1.2
      vertex 99 3.2 3.2
      vertex 84.3333 3.2 3.2
    endloop
  endfacet
  facet normal 0 -1 -0
    outer loop
      vertex 99 3.2 3.2
      vertex 84.3333 3.2 1.2
      vertex 99 3.2 1.2
    endloop
  endfacet
  facet normal 0 -1 0
    outer loop
      vertex 67.6667 3.2 1.2
      vertex 82.3333 3.2 3.2
      vertex 67.6667 3.2 3.2
    endloop
  endfacet
  facet normal 0 -1 -0
    outer loop
      vertex 82.3333 3.2 3.2
      vertex 67.6667 3.2 1.2
      vertex 82.3333 3.2 1.2
    endloop
  endfacet
  facet normal 0 -1 0
    outer loop
      vertex 51 3.2 1.2
      vertex 65.6667 3.2 3.2
      vertex 51 3.2 3.2
    endloop
  endfacet
  facet normal 0 -1 -0
    outer loop
      vertex 65.6667 3.2 3.2
      vertex 51 3.2 1.2
      vertex 65.6667 3.2 1.2
    endloop
  endfacet
  facet normal 0 -1 0
    outer loop
      vertex 34.3333 3.2 1.2
      vertex 49 3.2 3.2
      vertex 34.3333 3.2 3.2
    endloop
  endfacet
  facet normal 0 -1 -0
    outer loop
      vertex 49 3.2 3.2
      vertex 34.3333 3.2 1.2
      vertex 49 3.2 1.2
    endloop
  endfacet
  facet normal 0 -1 0
    outer loop
      vertex 17.6667 3.2 1.2
      vertex 32.3333 3.2 3.2
      vertex 17.6667 3.2 3.2
    endloop
  endfacet
  facet normal 0 -1 -0
    outer loop
      vertex 32.3333 3.2 3.2
      vertex 17.6667 3.2 1.2
      vertex 32.3333 3.2 1.2
    endloop
  endfacet
  facet normal 0 -1 0
    outer loop
      vertex 17.6667 3.2 3.2
      vertex 0 3.2 4
      vertex 15.6667 3.2 3.2
    endloop
  endfacet
  facet normal 0 -1 0
    outer loop
      vertex 0 3.2 1.2
      vertex 15.6667 3.2 3.2
      vertex 0 3.2 4
    endloop
  endfacet
  facet normal 0 -1 -0
    outer loop
      vertex 15.6667 3.2 3.2
      vertex 0 3.2 1.2
      vertex 15.6667 3.2 1.2
    endloop
  endfacet
  facet normal 0 -1 0
    outer loop
      vertex 32.3333 3.2 3.2
      vertex 0 3.2 4
      vertex 17.6667 3.2 3.2
    endloop
  endfacet
  facet normal 0 -1 0
    outer loop
      vertex 34.3333 3.2 3.2
      vertex 0 3.2 4
      vertex 32.3333 3.2 3.2
    endloop
  endfacet
  facet normal 0 -1 0
    outer loop
      vertex 49 3.2 3.2
      vertex 0 3.2 4
      vertex 34.3333 3.2 3.2
    endloop
  endfacet
  facet normal 0 -1 0
    outer loop
      vertex 51 3.2 3.2
      vertex 0 3.2 4
      vertex 49 3.2 3.2
    endloop
  endfacet
  facet normal 0 -1 0
    outer loop
      vertex 0 3.2 4
      vertex 51 3.2 3.2
      vertex 198.333 3.2 4
    endloop
  endfacet
  facet normal 0 -1 0
    outer loop
      vertex 65.6667 3.2 3.2
      vertex 198.333 3.2 4
      vertex 51 3.2 3.2
    endloop
  endfacet
  facet normal 0 -1 0
    outer loop
      vertex 67.6667 3.2 3.2
      vertex 198.333 3.2 4
      vertex 65.6667 3.2 3.2
    endloop
  endfacet
  facet normal 0 -1 0
    outer loop
      vertex 82.3333 3.2 3.2
      vertex 198.333 3.2 4
      vertex 67.6667 3.2 3.2
    endloop
  endfacet
  facet normal 0 -1 0
    outer loop
      vertex 84.3333 3.2 3.2
      vertex 198.333 3.2 4
      vertex 82.3333 3.2 3.2
    endloop
  endfacet
  facet normal 0 -1 0
    outer loop
      vertex 99 3.2 3.2
      vertex 198.333 3.2 4
      vertex 84.3333 3.2 3.2
    endloop
  endfacet
  facet normal 0 -1 0
    outer loop
      vertex 101 3.2 3.2
      vertex 198.333 3.2 4
      vertex 99 3.2 3.2
    endloop
  endfacet
  facet normal 0 -1 0
    outer loop
      vertex 115.667 3.2 3.2
      vertex 198.333 3.2 4
      vertex 101 3.2 3.2
    endloop
  endfacet
  facet normal 0 -1 0
    outer loop
      vertex 117.667 3.2 3.2
      vertex 198.333 3.2 4
      vertex 115.667 3.2 3.2
    endloop
  endfacet
  facet normal 0 -1 0
    outer loop
      vertex 132.333 3.2 3.2
      vertex 198.333 3.2 4
      vertex 117.667 3.2 3.2
    endloop
  endfacet
  facet normal 0 -1 0
    outer loop
      vertex 134.333 3.2 3.2
      vertex 198.333 3.2 4
      vertex 132.333 3.2 3.2
    endloop
  endfacet
  facet normal 0 -1 0
    outer loop
      vertex 149 3.2 3.2
      vertex 198.333 3.2 4
      vertex 134.333 3.2 3.2
    endloop
  endfacet
  facet normal 0 -1 0
    outer loop
      vertex 151 3.2 3.2
      vertex 198.333 3.2 4
      vertex 149 3.2 3.2
    endloop
  endfacet
  facet normal 0 -1 0
    outer loop
      vertex 165.667 3.2 3.2
      vertex 198.333 3.2 4
      vertex 151 3.2 3.2
    endloop
  endfacet
  facet normal 0 -1 0
    outer loop
      vertex 167.667 3.2 3.2
      vertex 198.333 3.2 4
      vertex 165.667 3.2 3.2
    endloop
  endfacet
  facet normal 0 -1 0
    outer loop
      vertex 198.333 3.2 1.2
      vertex 167.667 3.2 3.2
      vertex 167.667 3.2 1.2
    endloop
  endfacet
  facet normal 0 -1 0
    outer loop
      vertex 167.667 3.2 3.2
      vertex 198.333 3.2 1.2
      vertex 198.333 3.2 4
    endloop
  endfacet
  facet normal 0 -1 0
    outer loop
      vertex 49 3.2 1.2
      vertex 51 3.2 3.2
      vertex 49 3.2 3.2
    endloop
  endfacet
  facet normal 0 -1 -0
    outer loop
      vertex 51 3.2 3.2
      vertex 49 3.2 1.2
      vertex 51 3.2 1.2
    endloop
  endfacet
  facet normal 0 -1 0
    outer loop
      vertex 165.667 3.2 1.2
      vertex 167.667 3.2 3.2
      vertex 165.667 3.2 3.2
    endloop
  endfacet
  facet normal 0 -1 -0
    outer loop
      vertex 167.667 3.2 3.2
      vertex 165.667 3.2 1.2
      vertex 167.667 3.2 1.2
    endloop
  endfacet
  facet normal 0 -1 0
    outer loop
      vertex 99 3.2 1.2
      vertex 101 3.2 3.2
      vertex 99 3.2 3.2
    endloop
  endfacet
  facet normal 0 -1 -0
    outer loop
      vertex 101 3.2 3.2
      vertex 99 3.2 1.2
      vertex 101 3.2 1.2
    endloop
  endfacet
  facet normal 0 -1 0
    outer loop
      vertex 15.6667 3.2 1.2
      vertex 17.6667 3.2 3.2
      vertex 15.6667 3.2 3.2
    endloop
  endfacet
  facet normal 0 -1 -0
    outer loop
      vertex 17.6667 3.2 3.2
      vertex 15.6667 3.2 1.2
      vertex 17.6667 3.2 1.2
    endloop
  endfacet
  facet normal 0 -1 0
    outer loop
      vertex 115.667 3.2 1.2
      vertex 117.667 3.2 3.2
      vertex 115.667 3.2 3.2
    endloop
  endfacet
  facet normal 0 -1 -0
    outer loop
      vertex 117.667 3.2 3.2
      vertex 115.667 3.2 1.2
      vertex 117.667 3.2 1.2
    endloop
  endfacet
  facet normal 0 -1 0
    outer loop
      vertex 149 3.2 1.2
      vertex 151 3.2 3.2
      vertex 149 3.2 3.2
    endloop
  endfacet
  facet normal 0 -1 -0
    outer loop
      vertex 151 3.2 3.2
      vertex 149 3.2 1.2
      vertex 151 3.2 1.2
    endloop
  endfacet
  facet normal 0 -1 0
    outer loop
      vertex 82.3333 3.2 1.2
      vertex 84.3333 3.2 3.2
      vertex 82.3333 3.2 3.2
    endloop
  endfacet
  facet normal 0 -1 -0
    outer loop
      vertex 84.3333 3.2 3.2
      vertex 82.3333 3.2 1.2
      vertex 84.3333 3.2 1.2
    endloop
  endfacet
  facet normal 0 -1 0
    outer loop
      vertex 32.3333 3.2 1.2
      vertex 34.3333 3.2 3.2
      vertex 32.3333 3.2 3.2
    endloop
  endfacet
  facet normal 0 -1 -0
    outer loop
      vertex 34.3333 3.2 3.2
      vertex 32.3333 3.2 1.2
      vertex 34.3333 3.2 1.2
    endloop
  endfacet
  facet normal 0 -1 0
    outer loop
      vertex 65.6667 3.2 1.2
      vertex 67.6667 3.2 3.2
      vertex 65.6667 3.2 3.2
    endloop
  endfacet
  facet normal 0 -1 -0
    outer loop
      vertex 67.6667 3.2 3.2
      vertex 65.6667 3.2 1.2
      vertex 67.6667 3.2 1.2
    endloop
  endfacet
  facet normal 0 -1 0
    outer loop
      vertex 132.333 3.2 1.2
      vertex 134.333 3.2 3.2
      vertex 132.333 3.2 3.2
    endloop
  endfacet
  facet normal 0 -1 -0
    outer loop
      vertex 134.333 3.2 3.2
      vertex 132.333 3.2 1.2
      vertex 134.333 3.2 1.2
    endloop
  endfacet
  facet normal -0 0 1
    outer loop
      vertex 15.6667 3.2 1.2
      vertex 17.6667 0.9 1.2
      vertex 17.6667 3.2 1.2
    endloop
  endfacet
  facet normal 0 0 1
    outer loop
      vertex 15.6667 3.2 1.2
      vertex 15.6667 0.9 1.2
      vertex 17.6667 0.9 1.2
    endloop
  endfacet
  facet normal -0 0 1
    outer loop
      vertex 0 3.2 1.2
      vertex 15.6667 0.9 1.2
      vertex 15.6667 3.2 1.2
    endloop
  endfacet
  facet normal 0 0 1
    outer loop
      vertex 0 0.799999 1.2
      vertex 15.6667 0.9 1.2
      vertex 0 3.2 1.2
    endloop
  endfacet
  facet normal 0 0 1
    outer loop
      vertex 15.6667 0.9 1.2
      vertex 0 0.799999 1.2
      vertex 15.6667 0.799999 1.2
    endloop
  endfacet
  facet normal -0 0 1
    outer loop
      vertex 32.3333 3.2 1.2
      vertex 34.3333 0.9 1.2
      vertex 34.3333 3.2 1.2
    endloop
  endfacet
  facet normal 0 0 1
    outer loop
      vertex 32.3333 3.2 1.2
      vertex 32.3333 0.9 1.2
      vertex 34.3333 0.9 1.2
    endloop
  endfacet
  facet normal -0 0 1
    outer loop
      vertex 17.6667 3.2 1.2
      vertex 32.3333 0.9 1.2
      vertex 32.3333 3.2 1.2
    endloop
  endfacet
  facet normal 0 0 1
    outer loop
      vertex 17.6667 0.9 1.2
      vertex 32.3333 0.9 1.2
      vertex 17.6667 3.2 1.2
    endloop
  endfacet
  facet normal 0 0 1
    outer loop
      vertex 32.3333 0.9 1.2
      vertex 17.6667 0.9 1.2
      vertex 32.3333 0.799999 1.2
    endloop
  endfacet
  facet normal 0 0 1
    outer loop
      vertex 32.3333 0.799999 1.2
      vertex 17.6667 0.9 1.2
      vertex 17.6667 0.799999 1.2
    endloop
  endfacet
  facet normal -0 0 1
    outer loop
      vertex 49 3.2 1.2
      vertex 51 0.9 1.2
      vertex 51 3.2 1.2
    endloop
  endfacet
  facet normal 0 0 1
    outer loop
      vertex 49 3.2 1.2
      vertex 49 0.9 1.2
      vertex 51 0.9 1.2
    endloop
  endfacet
  facet normal -0 0 1
    outer loop
      vertex 34.3333 3.2 1.2
      vertex 49 0.9 1.2
      vertex 49 3.2 1.2
    endloop
  endfacet
  facet normal 0 0 1
    outer loop
      vertex 34.3333 0.9 1.2
      vertex 49 0.9 1.2
      vertex 34.3333 3.2 1.2
    endloop
  endfacet
  facet normal 0 0 1
    outer loop
      vertex 49 0.9 1.2
      vertex 34.3333 0.9 1.2
      vertex 49 0.799999 1.2
    endloop
  endfacet
  facet normal 0 0 1
    outer loop
      vertex 49 0.799999 1.2
      vertex 34.3333 0.9 1.2
      vertex 34.3333 0.799999 1.2
    endloop
  endfacet
  facet normal -0 0 1
    outer loop
      vertex 65.6667 3.2 1.2
      vertex 67.6667 0.9 1.2
      vertex 67.6667 3.2 1.2
    endloop
  endfacet
  facet normal 0 0 1
    outer loop
      vertex 65.6667 3.2 1.2
      vertex 65.6667 0.9 1.2
      vertex 67.6667 0.9 1.2
    endloop
  endfacet
  facet normal -0 0 1
    outer loop
      vertex 51 3.2 1.2
      vertex 65.6667 0.9 1.2
      vertex 65.6667 3.2 1.2
    endloop
  endfacet
  facet normal 0 0 1
    outer loop
      vertex 51 0.9 1.2
      vertex 65.6667 0.9 1.2
      vertex 51 3.2 1.2
    endloop
  endfacet
  facet normal 0 0 1
    outer loop
      vertex 65.6667 0.9 1.2
      vertex 51 0.9 1.2
      vertex 65.6667 0.799999 1.2
    endloop
  endfacet
  facet normal 0 0 1
    outer loop
      vertex 65.6667 0.799999 1.2
      vertex 51 0.9 1.2
      vertex 51 0.799999 1.2
    endloop
  endfacet
  facet normal -0 0 1
    outer loop
      vertex 82.3333 3.2 1.2
      vertex 84.3333 0.9 1.2
      vertex 84.3333 3.2 1.2
    endloop
  endfacet
  facet normal 0 0 1
    outer loop
      vertex 82.3333 3.2 1.2
      vertex 82.3333 0.9 1.2
      vertex 84.3333 0.9 1.2
    endloop
  endfacet
  facet normal -0 0 1
    outer loop
      vertex 67.6667 3.2 1.2
      vertex 82.3333 0.9 1.2
      vertex 82.3333 3.2 1.2
    endloop
  endfacet
  facet normal 0 0 1
    outer loop
      vertex 67.6667 0.9 1.2
      vertex 82.3333 0.9 1.2
      vertex 67.6667 3.2 1.2
    endloop
  endfacet
  facet normal 0 0 1
    outer loop
      vertex 82.3333 0.9 1.2
      vertex 67.6667 0.9 1.2
      vertex 82.3333 0.799999 1.2
    endloop
  endfacet
  facet normal 0 0 1
    outer loop
      vertex 82.3333 0.799999 1.2
      vertex 67.6667 0.9 1.2
      vertex 67.6667 0.799999 1.2
    endloop
  endfacet
  facet normal -0 0 1
    outer loop
      vertex 99 3.2 1.2
      vertex 101 0.9 1.2
      vertex 101 3.2 1.2
    endloop
  endfacet
  facet normal 0 0 1
    outer loop
      vertex 99 3.2 1.2
      vertex 99 0.9 1.2
      vertex 101 0.9 1.2
    endloop
  endfacet
  facet normal -0 0 1
    outer loop
      vertex 84.3333 3.2 1.2
      vertex 99 0.9 1.2
      vertex 99 3.2 1.2
    endloop
  endfacet
  facet normal 0 0 1
    outer loop
      vertex 84.3333 0.9 1.2
      vertex 99 0.9 1.2
      vertex 84.3333 3.2 1.2
    endloop
  endfacet
  facet normal 0 0 1
    outer loop
      vertex 99 0.9 1.2
      vertex 84.3333 0.9 1.2
      vertex 99 0.799999 1.2
    endloop
  endfacet
  facet normal 0 0 1
    outer loop
      vertex 99 0.799999 1.2
      vertex 84.3333 0.9 1.2
      vertex 84.3333 0.799999 1.2
    endloop
  endfacet
  facet normal -0 0 1
    outer loop
      vertex 115.667 3.2 1.2
      vertex 117.667 0.9 1.2
      vertex 117.667 3.2 1.2
    endloop
  endfacet
  facet normal 0 0 1
    outer loop
      vertex 115.667 3.2 1.2
      vertex 115.667 0.9 1.2
      vertex 117.667 0.9 1.2
    endloop
  endfacet
  facet normal -0 0 1
    outer loop
      vertex 101 3.2 1.2
      vertex 115.667 0.9 1.2
      vertex 115.667 3.2 1.2
    endloop
  endfacet
  facet normal 0 0 1
    outer loop
      vertex 101 0.9 1.2
      vertex 115.667 0.9 1.2
      vertex 101 3.2 1.2
    endloop
  endfacet
  facet normal 0 0 1
    outer loop
      vertex 115.667 0.9 1.2
      vertex 101 0.9 1.2
      vertex 115.667 0.799999 1.2
    endloop
  endfacet
  facet normal 0 0 1
    outer loop
      vertex 115.667 0.799999 1.2
      vertex 101 0.9 1.2
      vertex 101 0.799999 1.2
    endloop
  endfacet
  facet normal -0 0 1
    outer loop
      vertex 132.333 3.2 1.2
      vertex 134.333 0.9 1.2
      vertex 134.333 3.2 1.2
    endloop
  endfacet
  facet normal 0 0 1
    outer loop
      vertex 132.333 3.2 1.2
      vertex 132.333 0.9 1.2
      vertex 134.333 0.9 1.2
    endloop
  endfacet
  facet normal -0 0 1
    outer loop
      vertex 117.667 3.2 1.2
      vertex 132.333 0.9 1.2
      vertex 132.333 3.2 1.2
    endloop
  endfacet
  facet normal 0 0 1
    outer loop
      vertex 117.667 0.9 1.2
      vertex 132.333 0.9 1.2
      vertex 117.667 3.2 1.2
    endloop
  endfacet
  facet normal 0 0 1
    outer loop
      vertex 132.333 0.9 1.2
      vertex 117.667 0.9 1.2
      vertex 132.333 0.799999 1.2
    endloop
  endfacet
  facet normal 0 0 1
    outer loop
      vertex 132.333 0.799999 1.2
      vertex 117.667 0.9 1.2
      vertex 117.667 0.799999 1.2
    endloop
  endfacet
  facet normal -0 0 1
    outer loop
      vertex 149 3.2 1.2
      vertex 151 0.9 1.2
      vertex 151 3.2 1.2
    endloop
  endfacet
  facet normal 0 0 1
    outer loop
      vertex 149 3.2 1.2
      vertex 149 0.9 1.2
      vertex 151 0.9 1.2
    endloop
  endfacet
  facet normal -0 0 1
    outer loop
      vertex 134.333 3.2 1.2
      vertex 149 0.9 1.2
      vertex 149 3.2 1.2
    endloop
  endfacet
  facet normal 0 0 1
    outer loop
      vertex 134.333 0.9 1.2
      vertex 149 0.9 1.2
      vertex 134.333 3.2 1.2
    endloop
  endfacet
  facet normal 0 0 1
    outer loop
      vertex 149 0.9 1.2
      vertex 134.333 0.9 1.2
      vertex 149 0.799999 1.2
    endloop
  endfacet
  facet normal 0 0 1
    outer loop
      vertex 149 0.799999 1.2
      vertex 134.333 0.9 1.2
      vertex 134.333 0.799999 1.2
    endloop
  endfacet
  facet normal -0 0 1
    outer loop
      vertex 165.667 3.2 1.2
      vertex 167.667 0.9 1.2
      vertex 167.667 3.2 1.2
    endloop
  endfacet
  facet normal 0 0 1
    outer loop
      vertex 165.667 3.2 1.2
      vertex 165.667 0.9 1.2
      vertex 167.667 0.9 1.2
    endloop
  endfacet
  facet normal -0 0 1
    outer loop
      vertex 151 3.2 1.2
      vertex 165.667 0.9 1.2
      vertex 165.667 3.2 1.2
    endloop
  endfacet
  facet normal 0 0 1
    outer loop
      vertex 151 0.9 1.2
      vertex 165.667 0.9 1.2
      vertex 151 3.2 1.2
    endloop
  endfacet
  facet normal 0 0 1
    outer loop
      vertex 165.667 0.9 1.2
      vertex 151 0.9 1.2
      vertex 165.667 0.799999 1.2
    endloop
  endfacet
  facet normal 0 0 1
    outer loop
      vertex 165.667 0.799999 1.2
      vertex 151 0.9 1.2
      vertex 151 0.799999 1.2
    endloop
  endfacet
  facet normal -0 0 1
    outer loop
      vertex 167.667 3.2 1.2
      vertex 198.333 0.799999 1.2
      vertex 198.333 3.2 1.2
    endloop
  endfacet
  facet normal -0 0 1
    outer loop
      vertex 167.667 0.9 1.2
      vertex 198.333 0.799999 1.2
      vertex 167.667 3.2 1.2
    endloop
  endfacet
  facet normal 0 0 1
    outer loop
      vertex 198.333 0.799999 1.2
      vertex 167.667 0.9 1.2
      vertex 167.667 0.799999 1.2
    endloop
  endfacet
  facet normal 0 1 -0
    outer loop
      vertex 32.3333 0.799999 1.2
      vertex 17.6667 0.799999 3.2
      vertex 32.3333 0.799999 3.2
    endloop
  endfacet
  facet normal 0 1 0
    outer loop
      vertex 17.6667 0.799999 3.2
      vertex 32.3333 0.799999 1.2
      vertex 17.6667 0.799999 1.2
    endloop
  endfacet
  facet normal 0 1 -0
    outer loop
      vertex 49 0.799999 1.2
      vertex 34.3333 0.799999 3.2
      vertex 49 0.799999 3.2
    endloop
  endfacet
  facet normal 0 1 0
    outer loop
      vertex 34.3333 0.799999 3.2
      vertex 49 0.799999 1.2
      vertex 34.3333 0.799999 1.2
    endloop
  endfacet
  facet normal 0 1 -0
    outer loop
      vertex 65.6667 0.799999 1.2
      vertex 51 0.799999 3.2
      vertex 65.6667 0.799999 3.2
    endloop
  endfacet
  facet normal 0 1 0
    outer loop
      vertex 51 0.799999 3.2
      vertex 65.6667 0.799999 1.2
      vertex 51 0.799999 1.2
    endloop
  endfacet
  facet normal 0 1 -0
    outer loop
      vertex 82.3333 0.799999 1.2
      vertex 67.6667 0.799999 3.2
      vertex 82.3333 0.799999 3.2
    endloop
  endfacet
  facet normal 0 1 0
    outer loop
      vertex 67.6667 0.799999 3.2
      vertex 82.3333 0.799999 1.2
      vertex 67.6667 0.799999 1.2
    endloop
  endfacet
  facet normal 0 1 -0
    outer loop
      vertex 99 0.799999 1.2
      vertex 84.3333 0.799999 3.2
      vertex 99 0.799999 3.2
    endloop
  endfacet
  facet normal 0 1 0
    outer loop
      vertex 84.3333 0.799999 3.2
      vertex 99 0.799999 1.2
      vertex 84.3333 0.799999 1.2
    endloop
  endfacet
  facet normal 0 1 -0
    outer loop
      vertex 115.667 0.799999 1.2
      vertex 101 0.799999 3.2
      vertex 115.667 0.799999 3.2
    endloop
  endfacet
  facet normal 0 1 0
    outer loop
      vertex 101 0.799999 3.2
      vertex 115.667 0.799999 1.2
      vertex 101 0.799999 1.2
    endloop
  endfacet
  facet normal 0 1 -0
    outer loop
      vertex 132.333 0.799999 1.2
      vertex 117.667 0.799999 3.2
      vertex 132.333 0.799999 3.2
    endloop
  endfacet
  facet normal 0 1 0
    outer loop
      vertex 117.667 0.799999 3.2
      vertex 132.333 0.799999 1.2
      vertex 117.667 0.799999 1.2
    endloop
  endfacet
  facet normal 0 1 -0
    outer loop
      vertex 149 0.799999 1.2
      vertex 134.333 0.799999 3.2
      vertex 149 0.799999 3.2
    endloop
  endfacet
  facet normal 0 1 0
    outer loop
      vertex 134.333 0.799999 3.2
      vertex 149 0.799999 1.2
      vertex 134.333 0.799999 1.2
    endloop
  endfacet
  facet normal 0 1 -0
    outer loop
      vertex 165.667 0.799999 1.2
      vertex 151 0.799999 3.2
      vertex 165.667 0.799999 3.2
    endloop
  endfacet
  facet normal 0 1 0
    outer loop
      vertex 151 0.799999 3.2
      vertex 165.667 0.799999 1.2
      vertex 151 0.799999 1.2
    endloop
  endfacet
  facet normal 0 1 0
    outer loop
      vertex 165.667 0.799999 3.2
      vertex 198.333 0.799999 4
      vertex 167.667 0.799999 3.2
    endloop
  endfacet
  facet normal 0 1 -0
    outer loop
      vertex 198.333 0.799999 1.2
      vertex 167.667 0.799999 3.2
      vertex 198.333 0.799999 4
    endloop
  endfacet
  facet normal 0 1 0
    outer loop
      vertex 167.667 0.799999 3.2
      vertex 198.333 0.799999 1.2
      vertex 167.667 0.799999 1.2
    endloop
  endfacet
  facet normal 0 1 0
    outer loop
      vertex 151 0.799999 3.2
      vertex 198.333 0.799999 4
      vertex 165.667 0.799999 3.2
    endloop
  endfacet
  facet normal 0 1 0
    outer loop
      vertex 149 0.799999 3.2
      vertex 198.333 0.799999 4
      vertex 151 0.799999 3.2
    endloop
  endfacet
  facet normal 0 1 0
    outer loop
      vertex 134.333 0.799999 3.2
      vertex 198.333 0.799999 4
      vertex 149 0.799999 3.2
    endloop
  endfacet
  facet normal 0 1 0
    outer loop
      vertex 198.333 0.799999 4
      vertex 134.333 0.799999 3.2
      vertex 0 0.799999 4
    endloop
  endfacet
  facet normal 0 1 -0
    outer loop
      vertex 132.333 0.799999 3.2
      vertex 0 0.799999 4
      vertex 134.333 0.799999 3.2
    endloop
  endfacet
  facet normal 0 1 -0
    outer loop
      vertex 117.667 0.799999 3.2
      vertex 0 0.799999 4
      vertex 132.333 0.799999 3.2
    endloop
  endfacet
  facet normal 0 1 -0
    outer loop
      vertex 115.667 0.799999 3.2
      vertex 0 0.799999 4
      vertex 117.667 0.799999 3.2
    endloop
  endfacet
  facet normal 0 1 -0
    outer loop
      vertex 101 0.799999 3.2
      vertex 0 0.799999 4
      vertex 115.667 0.799999 3.2
    endloop
  endfacet
  facet normal 0 1 -0
    outer loop
      vertex 99 0.799999 3.2
      vertex 0 0.799999 4
      vertex 101 0.799999 3.2
    endloop
  endfacet
  facet normal 0 1 -0
    outer loop
      vertex 84.3333 0.799999 3.2
      vertex 0 0.799999 4
      vertex 99 0.799999 3.2
    endloop
  endfacet
  facet normal 0 1 -0
    outer loop
      vertex 82.3333 0.799999 3.2
      vertex 0 0.799999 4
      vertex 84.3333 0.799999 3.2
    endloop
  endfacet
  facet normal 0 1 -0
    outer loop
      vertex 67.6667 0.799999 3.2
      vertex 0 0.799999 4
      vertex 82.3333 0.799999 3.2
    endloop
  endfacet
  facet normal 0 1 -0
    outer loop
      vertex 65.6667 0.799999 3.2
      vertex 0 0.799999 4
      vertex 67.6667 0.799999 3.2
    endloop
  endfacet
  facet normal 0 1 -0
    outer loop
      vertex 51 0.799999 3.2
      vertex 0 0.799999 4
      vertex 65.6667 0.799999 3.2
    endloop
  endfacet
  facet normal 0 1 -0
    outer loop
      vertex 49 0.799999 3.2
      vertex 0 0.799999 4
      vertex 51 0.799999 3.2
    endloop
  endfacet
  facet normal 0 1 -0
    outer loop
      vertex 34.3333 0.799999 3.2
      vertex 0 0.799999 4
      vertex 49 0.799999 3.2
    endloop
  endfacet
  facet normal 0 1 -0
    outer loop
      vertex 32.3333 0.799999 3.2
      vertex 0 0.799999 4
      vertex 34.3333 0.799999 3.2
    endloop
  endfacet
  facet normal 0 1 -0
    outer loop
      vertex 17.6667 0.799999 3.2
      vertex 0 0.799999 4
      vertex 32.3333 0.799999 3.2
    endloop
  endfacet
  facet normal 0 1 -0
    outer loop
      vertex 15.6667 0.799999 3.2
      vertex 0 0.799999 4
      vertex 17.6667 0.799999 3.2
    endloop
  endfacet
  facet normal 0 1 0
    outer loop
      vertex 0 0.799999 1.2
      vertex 15.6667 0.799999 3.2
      vertex 15.6667 0.799999 1.2
    endloop
  endfacet
  facet normal 0 1 0
    outer loop
      vertex 15.6667 0.799999 3.2
      vertex 0 0.799999 1.2
      vertex 0 0.799999 4
    endloop
  endfacet
  facet normal -1 0 0
    outer loop
      vertex 15.6667 0.799999 1.2
      vertex 15.6667 0.9 3.2
      vertex 15.6667 0.9 1.2
    endloop
  endfacet
  facet normal -1 -0 0
    outer loop
      vertex 15.6667 0.9 3.2
      vertex 15.6667 0.799999 1.2
      vertex 15.6667 0.799999 3.2
    endloop
  endfacet
  facet normal -0 0 1
    outer loop
      vertex 15.6667 0.9 3.2
      vertex 17.6667 0.799999 3.2
      vertex 17.6667 0.9 3.2
    endloop
  endfacet
  facet normal 0 0 1
    outer loop
      vertex 17.6667 0.799999 3.2
      vertex 15.6667 0.9 3.2
      vertex 15.6667 0.799999 3.2
    endloop
  endfacet
  facet normal 1 -0 0
    outer loop
      vertex 17.6667 0.799999 3.2
      vertex 17.6667 0.9 1.2
      vertex 17.6667 0.9 3.2
    endloop
  endfacet
  facet normal 1 0 0
    outer loop
      vertex 17.6667 0.9 1.2
      vertex 17.6667 0.799999 3.2
      vertex 17.6667 0.799999 1.2
    endloop
  endfacet
  facet normal 0 1 -0
    outer loop
      vertex 17.6667 0.9 1.2
      vertex 15.6667 0.9 3.2
      vertex 17.6667 0.9 3.2
    endloop
  endfacet
  facet normal 0 1 0
    outer loop
      vertex 15.6667 0.9 3.2
      vertex 17.6667 0.9 1.2
      vertex 15.6667 0.9 1.2
    endloop
  endfacet
  facet normal -1 0 0
    outer loop
      vertex 32.3333 0.799999 1.2
      vertex 32.3333 0.9 3.2
      vertex 32.3333 0.9 1.2
    endloop
  endfacet
  facet normal -1 -0 0
    outer loop
      vertex 32.3333 0.9 3.2
      vertex 32.3333 0.799999 1.2
      vertex 32.3333 0.799999 3.2
    endloop
  endfacet
  facet normal -0 0 1
    outer loop
      vertex 32.3333 0.9 3.2
      vertex 34.3333 0.799999 3.2
      vertex 34.3333 0.9 3.2
    endloop
  endfacet
  facet normal 0 0 1
    outer loop
      vertex 34.3333 0.799999 3.2
      vertex 32.3333 0.9 3.2
      vertex 32.3333 0.799999 3.2
    endloop
  endfacet
  facet normal 1 -0 0
    outer loop
      vertex 34.3333 0.799999 3.2
      vertex 34.3333 0.9 1.2
      vertex 34.3333 0.9 3.2
    endloop
  endfacet
  facet normal 1 0 0
    outer loop
      vertex 34.3333 0.9 1.2
      vertex 34.3333 0.799999 3.2
      vertex 34.3333 0.799999 1.2
    endloop
  endfacet
  facet normal 0 1 -0
    outer loop
      vertex 34.3333 0.9 1.2
      vertex 32.3333 0.9 3.2
      vertex 34.3333 0.9 3.2
    endloop
  endfacet
  facet normal 0 1 0
    outer loop
      vertex 32.3333 0.9 3.2
      vertex 34.3333 0.9 1.2
      vertex 32.3333 0.9 1.2
    endloop
  endfacet
  facet normal -1 0 0
    outer loop
      vertex 49 0.799999 1.2
      vertex 49 0.9 3.2
      vertex 49 0.9 1.2
    endloop
  endfacet
  facet normal -1 -0 0
    outer loop
      vertex 49 0.9 3.2
      vertex 49 0.799999 1.2
      vertex 49 0.799999 3.2
    endloop
  endfacet
  facet normal -0 0 1
    outer loop
      vertex 49 0.9 3.2
      vertex 51 0.799999 3.2
      vertex 51 0.9 3.2
    endloop
  endfacet
  facet normal 0 0 1
    outer loop
      vertex 51 0.799999 3.2
      vertex 49 0.9 3.2
      vertex 49 0.799999 3.2
    endloop
  endfacet
  facet normal 1 -0 0
    outer loop
      vertex 51 0.799999 3.2
      vertex 51 0.9 1.2
      vertex 51 0.9 3.2
    endloop
  endfacet
  facet normal 1 0 0
    outer loop
      vertex 51 0.9 1.2
      vertex 51 0.799999 3.2
      vertex 51 0.799999 1.2
    endloop
  endfacet
  facet normal 0 1 -0
    outer loop
      vertex 51 0.9 1.2
      vertex 49 0.9 3.2
      vertex 51 0.9 3.2
    endloop
  endfacet
  facet normal 0 1 0
    outer loop
      vertex 49 0.9 3.2
      vertex 51 0.9 1.2
      vertex 49 0.9 1.2
    endloop
  endfacet
  facet normal -1 0 0
    outer loop
      vertex 65.6667 0.799999 1.2
      vertex 65.6667 0.9 3.2
      vertex 65.6667 0.9 1.2
    endloop
  endfacet
  facet normal -1 -0 0
    outer loop
      vertex 65.6667 0.9 3.2
      vertex 65.6667 0.799999 1.2
      vertex 65.6667 0.799999 3.2
    endloop
  endfacet
  facet normal -0 0 1
    outer loop
      vertex 65.6667 0.9 3.2
      vertex 67.6667 0.799999 3.2
      vertex 67.6667 0.9 3.2
    endloop
  endfacet
  facet normal 0 0 1
    outer loop
      vertex 67.6667 0.799999 3.2
      vertex 65.6667 0.9 3.2
      vertex 65.6667 0.799999 3.2
    endloop
  endfacet
  facet normal 1 -0 0
    outer loop
      vertex 67.6667 0.799999 3.2
      vertex 67.6667 0.9 1.2
      vertex 67.6667 0.9 3.2
    endloop
  endfacet
  facet normal 1 0 0
    outer loop
      vertex 67.6667 0.9 1.2
      vertex 67.6667 0.799999 3.2
      vertex 67.6667 0.799999 1.2
    endloop
  endfacet
  facet normal 0 1 -0
    outer loop
      vertex 67.6667 0.9 1.2
      vertex 65.6667 0.9 3.2
      vertex 67.6667 0.9 3.2
    endloop
  endfacet
  facet normal 0 1 0
    outer loop
      vertex 65.6667 0.9 3.2
      vertex 67.6667 0.9 1.2
      vertex 65.6667 0.9 1.2
    endloop
  endfacet
  facet normal -1 0 0
    outer loop
      vertex 82.3333 0.799999 1.2
      vertex 82.3333 0.9 3.2
      vertex 82.3333 0.9 1.2
    endloop
  endfacet
  facet normal -1 -0 0
    outer loop
      vertex 82.3333 0.9 3.2
      vertex 82.3333 0.799999 1.2
      vertex 82.3333 0.799999 3.2
    endloop
  endfacet
  facet normal -0 0 1
    outer loop
      vertex 82.3333 0.9 3.2
      vertex 84.3333 0.799999 3.2
      vertex 84.3333 0.9 3.2
    endloop
  endfacet
  facet normal 0 0 1
    outer loop
      vertex 84.3333 0.799999 3.2
      vertex 82.3333 0.9 3.2
      vertex 82.3333 0.799999 3.2
    endloop
  endfacet
  facet normal 1 -0 0
    outer loop
      vertex 84.3333 0.799999 3.2
      vertex 84.3333 0.9 1.2
      vertex 84.3333 0.9 3.2
    endloop
  endfacet
  facet normal 1 0 0
    outer loop
      vertex 84.3333 0.9 1.2
      vertex 84.3333 0.799999 3.2
      vertex 84.3333 0.799999 1.2
    endloop
  endfacet
  facet normal 0 1 -0
    outer loop
      vertex 84.3333 0.9 1.2
      vertex 82.3333 0.9 3.2
      vertex 84.3333 0.9 3.2
    endloop
  endfacet
  facet normal 0 1 0
    outer loop
      vertex 82.3333 0.9 3.2
      vertex 84.3333 0.9 1.2
      vertex 82.3333 0.9 1.2
    endloop
  endfacet
  facet normal -1 0 0
    outer loop
      vertex 99 0.799999 1.2
      vertex 99 0.9 3.2
      vertex 99 0.9 1.2
    endloop
  endfacet
  facet normal -1 -0 0
    outer loop
      vertex 99 0.9 3.2
      vertex 99 0.799999 1.2
      vertex 99 0.799999 3.2
    endloop
  endfacet
  facet normal -0 0 1
    outer loop
      vertex 99 0.9 3.2
      vertex 101 0.799999 3.2
      vertex 101 0.9 3.2
    endloop
  endfacet
  facet normal 0 0 1
    outer loop
      vertex 101 0.799999 3.2
      vertex 99 0.9 3.2
      vertex 99 0.799999 3.2
    endloop
  endfacet
  facet normal 1 -0 0
    outer loop
      vertex 101 0.799999 3.2
      vertex 101 0.9 1.2
      vertex 101 0.9 3.2
    endloop
  endfacet
  facet normal 1 0 0
    outer loop
      vertex 101 0.9 1.2
      vertex 101 0.799999 3.2
      vertex 101 0.799999 1.2
    endloop
  endfacet
  facet normal 0 1 -0
    outer loop
      vertex 101 0.9 1.2
      vertex 99 0.9 3.2
      vertex 101 0.9 3.2
    endloop
  endfacet
  facet normal 0 1 0
    outer loop
      vertex 99 0.9 3.2
      vertex 101 0.9 1.2
      vertex 99 0.9 1.2
    endloop
  endfacet
  facet normal -1 0 0
    outer loop
      vertex 115.667 0.799999 1.2
      vertex 115.667 0.9 3.2
      vertex 115.667 0.9 1.2
    endloop
  endfacet
  facet normal -1 -0 0
    outer loop
      vertex 115.667 0.9 3.2
      vertex 115.667 0.799999 1.2
      vertex 115.667 0.799999 3.2
    endloop
  endfacet
  facet normal -0 0 1
    outer loop
      vertex 115.667 0.9 3.2
      vertex 117.667 0.799999 3.2
      vertex 117.667 0.9 3.2
    endloop
  endfacet
  facet normal 0 0 1
    outer loop
      vertex 117.667 0.799999 3.2
      vertex 115.667 0.9 3.2
      vertex 115.667 0.799999 3.2
    endloop
  endfacet
  facet normal 1 -0 0
    outer loop
      vertex 117.667 0.799999 3.2
      vertex 117.667 0.9 1.2
      vertex 117.667 0.9 3.2
    endloop
  endfacet
  facet normal 1 0 0
    outer loop
      vertex 117.667 0.9 1.2
      vertex 117.667 0.799999 3.2
      vertex 117.667 0.799999 1.2
    endloop
  endfacet
  facet normal 0 1 -0
    outer loop
      vertex 117.667 0.9 1.2
      vertex 115.667 0.9 3.2
      vertex 117.667 0.9 3.2
    endloop
  endfacet
  facet normal 0 1 0
    outer loop
      vertex 115.667 0.9 3.2
      vertex 117.667 0.9 1.2
      vertex 115.667 0.9 1.2
    endloop
  endfacet
  facet normal -1 0 0
    outer loop
      vertex 132.333 0.799999 1.2
      vertex 132.333 0.9 3.2
      vertex 132.333 0.9 1.2
    endloop
  endfacet
  facet normal -1 -0 0
    outer loop
      vertex 132.333 0.9 3.2
      vertex 132.333 0.799999 1.2
      vertex 132.333 0.799999 3.2
    endloop
  endfacet
  facet normal -0 0 1
    outer loop
      vertex 132.333 0.9 3.2
      vertex 134.333 0.799999 3.2
      vertex 134.333 0.9 3.2
    endloop
  endfacet
  facet normal 0 0 1
    outer loop
      vertex 134.333 0.799999 3.2
      vertex 132.333 0.9 3.2
      vertex 132.333 0.799999 3.2
    endloop
  endfacet
  facet normal 1 -0 0
    outer loop
      vertex 134.333 0.799999 3.2
      vertex 134.333 0.9 1.2
      vertex 134.333 0.9 3.2
    endloop
  endfacet
  facet normal 1 0 0
    outer loop
      vertex 134.333 0.9 1.2
      vertex 134.333 0.799999 3.2
      vertex 134.333 0.799999 1.2
    endloop
  endfacet
  facet normal 0 1 -0
    outer loop
      vertex 134.333 0.9 1.2
      vertex 132.333 0.9 3.2
      vertex 134.333 0.9 3.2
    endloop
  endfacet
  facet normal 0 1 0
    outer loop
      vertex 132.333 0.9 3.2
      vertex 134.333 0.9 1.2
      vertex 132.333 0.9 1.2
    endloop
  endfacet
  facet normal -1 0 0
    outer loop
      vertex 149 0.799999 1.2
      vertex 149 0.9 3.2
      vertex 149 0.9 1.2
    endloop
  endfacet
  facet normal -1 -0 0
    outer loop
      vertex 149 0.9 3.2
      vertex 149 0.799999 1.2
      vertex 149 0.799999 3.2
    endloop
  endfacet
  facet normal -0 0 1
    outer loop
      vertex 149 0.9 3.2
      vertex 151 0.799999 3.2
      vertex 151 0.9 3.2
    endloop
  endfacet
  facet normal 0 0 1
    outer loop
      vertex 151 0.799999 3.2
      vertex 149 0.9 3.2
      vertex 149 0.799999 3.2
    endloop
  endfacet
  facet normal 1 -0 0
    outer loop
      vertex 151 0.799999 3.2
      vertex 151 0.9 1.2
      vertex 151 0.9 3.2
    endloop
  endfacet
  facet normal 1 0 0
    outer loop
      vertex 151 0.9 1.2
      vertex 151 0.799999 3.2
      vertex 151 0.799999 1.2
    endloop
  endfacet
  facet normal 0 1 -0
    outer loop
      vertex 151 0.9 1.2
      vertex 149 0.9 3.2
      vertex 151 0.9 3.2
    endloop
  endfacet
  facet normal 0 1 0
    outer loop
      vertex 149 0.9 3.2
      vertex 151 0.9 1.2
      vertex 149 0.9 1.2
    endloop
  endfacet
  facet normal -1 0 0
    outer loop
      vertex 165.667 0.799999 1.2
      vertex 165.667 0.9 3.2
      vertex 165.667 0.9 1.2
    endloop
  endfacet
  facet normal -1 -0 0
    outer loop
      vertex 165.667 0.9 3.2
      vertex 165.667 0.799999 1.2
      vertex 165.667 0.799999 3.2
    endloop
  endfacet
  facet normal -0 0 1
    outer loop
      vertex 165.667 0.9 3.2
      vertex 167.667 0.799999 3.2
      vertex 167.667 0.9 3.2
    endloop
  endfacet
  facet normal 0 0 1
    outer loop
      vertex 167.667 0.799999 3.2
      vertex 165.667 0.9 3.2
      vertex 165.667 0.799999 3.2
    endloop
  endfacet
  facet normal 1 -0 0
    outer loop
      vertex 167.667 0.799999 3.2
      vertex 167.667 0.9 1.2
      vertex 167.667 0.9 3.2
    endloop
  endfacet
  facet normal 1 0 0
    outer loop
      vertex 167.667 0.9 1.2
      vertex 167.667 0.799999 3.2
      vertex 167.667 0.799999 1.2
    endloop
  endfacet
  facet normal 0 1 -0
    outer loop
      vertex 167.667 0.9 1.2
      vertex 165.667 0.9 3.2
      vertex 167.667 0.9 3.2
    endloop
  endfacet
  facet normal 0 1 0
    outer loop
      vertex 165.667 0.9 3.2
      vertex 167.667 0.9 1.2
      vertex 165.667 0.9 1.2
    endloop
  endfacet
  facet normal -1 0 0
    outer loop
      vertex 0 13 0
      vertex 0 12.2 1.2
      vertex 0 13 4
    endloop
  endfacet
  facet normal -1 0 0
    outer loop
      vertex 0 13 0
      vertex 0 9.8 1.2
      vertex 0 12.2 1.2
    endloop
  endfacet
  facet normal -1 0 0
    outer loop
      vertex 0 9 0
      vertex 0 9.8 1.2
      vertex 0 13 0
    endloop
  endfacet
  facet normal -1 0 0
    outer loop
      vertex 0 9 4
      vertex 0 9.8 1.2
      vertex 0 9 0
    endloop
  endfacet
  facet normal -1 0 0
    outer loop
      vertex 0 9.8 1.2
      vertex 0 9 4
      vertex 0 9.8 4
    endloop
  endfacet
  facet normal -1 -0 0
    outer loop
      vertex 0 13 4
      vertex 0 12.2 1.2
      vertex 0 12.2 4
    endloop
  endfacet
  facet normal -0 0 1
    outer loop
      vertex 0 9.8 4
      vertex 198.333 9 4
      vertex 198.333 9.8 4
    endloop
  endfacet
  facet normal 0 0 1
    outer loop
      vertex 198.333 9 4
      vertex 0 9.8 4
      vertex 0 9 4
    endloop
  endfacet
  facet normal -0 0 1
    outer loop
      vertex 0 13 4
      vertex 198.333 12.2 4
      vertex 198.333 13 4
    endloop
  endfacet
  facet normal 0 0 1
    outer loop
      vertex 198.333 12.2 4
      vertex 0 13 4
      vertex 0 12.2 4
    endloop
  endfacet
  facet normal 1 0 0
    outer loop
      vertex 198.333 9.8 4
      vertex 198.333 9 4
      vertex 198.333 9.8 1.2
    endloop
  endfacet
  facet normal 1 0 0
    outer loop
      vertex 198.333 12.2 1.2
      vertex 198.333 13 4
      vertex 198.333 12.2 4
    endloop
  endfacet
  facet normal 1 0 0
    outer loop
      vertex 198.333 13 4
      vertex 198.333 12.2 1.2
      vertex 198.333 13 0
    endloop
  endfacet
  facet normal 1 -0 0
    outer loop
      vertex 198.333 9.8 1.2
      vertex 198.333 13 0
      vertex 198.333 12.2 1.2
    endloop
  endfacet
  facet normal 1 0 0
    outer loop
      vertex 198.333 9.8 1.2
      vertex 198.333 9 0
      vertex 198.333 13 0
    endloop
  endfacet
  facet normal 1 0 0
    outer loop
      vertex 198.333 9 0
      vertex 198.333 9.8 1.2
      vertex 198.333 9 4
    endloop
  endfacet
  facet normal 0 1 -0
    outer loop
      vertex 198.333 13 0
      vertex 0 13 4
      vertex 198.333 13 4
    endloop
  endfacet
  facet normal 0 1 0
    outer loop
      vertex 0 13 4
      vertex 198.333 13 0
      vertex 0 13 0
    endloop
  endfacet
  facet normal 0 0 -1
    outer loop
      vertex 0 9 0
      vertex 198.333 13 0
      vertex 198.333 9 0
    endloop
  endfacet
  facet normal -0 0 -1
    outer loop
      vertex 198.333 13 0
      vertex 0 9 0
      vertex 0 13 0
    endloop
  endfacet
  facet normal 0 -1 0
    outer loop
      vertex 0 9 0
      vertex 198.333 9 4
      vertex 0 9 4
    endloop
  endfacet
  facet normal 0 -1 -0
    outer loop
      vertex 198.333 9 4
      vertex 0 9 0
      vertex 198.333 9 0
    endloop
  endfacet
  facet normal 0 -1 0
    outer loop
      vertex 151 12.2 1.2
      vertex 165.667 12.2 3.2
      vertex 151 12.2 3.2
    endloop
  endfacet
  facet normal 0 -1 -0
    outer loop
      vertex 165.667 12.2 3.2
      vertex 151 12.2 1.2
      vertex 165.667 12.2 1.2
    endloop
  endfacet
  facet normal 0 -1 0
    outer loop
      vertex 134.333 12.2 1.2
      vertex 149 12.2 3.2
      vertex 134.333 12.2 3.2
    endloop
  endfacet
  facet normal 0 -1 -0
    outer loop
      vertex 149 12.2 3.2
      vertex 134.333 12.2 1.2
      vertex 149 12.2 1.2
    endloop
  endfacet
  facet normal 0 -1 0
    outer loop
      vertex 117.667 12.2 1.2
      vertex 132.333 12.2 3.2
      vertex 117.667 12.2 3.2
    endloop
  endfacet
  facet normal 0 -1 -0
    outer loop
      vertex 132.333 12.2 3.2
      vertex 117.667 12.2 1.2
      vertex 132.333 12.2 1.2
    endloop
  endfacet
  facet normal 0 -1 0
    outer loop
      vertex 101 12.2 1.2
      vertex 115.667 12.2 3.2
      vertex 101 12.2 3.2
    endloop
  endfacet
  facet normal 0 -1 -0
    outer loop
      vertex 115.667 12.2 3.2
      vertex 101 12.2 1.2
      vertex 115.667 12.2 1.2
    endloop
  endfacet
  facet normal 0 -1 0
    outer loop
      vertex 84.3333 12.2 1.2
      vertex 99 12.2 3.2
      vertex 84.3333 12.2 3.2
    endloop
  endfacet
  facet normal 0 -1 -0
    outer loop
      vertex 99 12.2 3.2
      vertex 84.3333 12.2 1.2
      vertex 99 12.2 1.2
    endloop
  endfacet
  facet normal 0 -1 0
    outer loop
      vertex 67.6667 12.2 1.2
      vertex 82.3333 12.2 3.2
      vertex 67.6667 12.2 3.2
    endloop
  endfacet
  facet normal 0 -1 -0
    outer loop
      vertex 82.3333 12.2 3.2
      vertex 67.6667 12.2 1.2
      vertex 82.3333 12.2 1.2
    endloop
  endfacet
  facet normal 0 -1 0
    outer loop
      vertex 51 12.2 1.2
      vertex 65.6667 12.2 3.2
      vertex 51 12.2 3.2
    endloop
  endfacet
  facet normal 0 -1 -0
    outer loop
      vertex 65.6667 12.2 3.2
      vertex 51 12.2 1.2
      vertex 65.6667 12.2 1.2
    endloop
  endfacet
  facet normal 0 -1 0
    outer loop
      vertex 34.3333 12.2 1.2
      vertex 49 12.2 3.2
      vertex 34.3333 12.2 3.2
    endloop
  endfacet
  facet normal 0 -1 -0
    outer loop
      vertex 49 12.2 3.2
      vertex 34.3333 12.2 1.2
      vertex 49 12.2 1.2
    endloop
  endfacet
  facet normal 0 -1 0
    outer loop
      vertex 17.6667 12.2 1.2
      vertex 32.3333 12.2 3.2
      vertex 17.6667 12.2 3.2
    endloop
  endfacet
  facet normal 0 -1 -0
    outer loop
      vertex 32.3333 12.2 3.2
      vertex 17.6667 12.2 1.2
      vertex 32.3333 12.2 1.2
    endloop
  endfacet
  facet normal 0 -1 0
    outer loop
      vertex 17.6667 12.2 3.2
      vertex 0 12.2 4
      vertex 15.6667 12.2 3.2
    endloop
  endfacet
  facet normal 0 -1 0
    outer loop
      vertex 0 12.2 1.2
      vertex 15.6667 12.2 3.2
      vertex 0 12.2 4
    endloop
  endfacet
  facet normal 0 -1 -0
    outer loop
      vertex 15.6667 12.2 3.2
      vertex 0 12.2 1.2
      vertex 15.6667 12.2 1.2
    endloop
  endfacet
  facet normal 0 -1 0
    outer loop
      vertex 32.3333 12.2 3.2
      vertex 0 12.2 4
      vertex 17.6667 12.2 3.2
    endloop
  endfacet
  facet normal 0 -1 0
    outer loop
      vertex 34.3333 12.2 3.2
      vertex 0 12.2 4
      vertex 32.3333 12.2 3.2
    endloop
  endfacet
  facet normal 0 -1 0
    outer loop
      vertex 49 12.2 3.2
      vertex 0 12.2 4
      vertex 34.3333 12.2 3.2
    endloop
  endfacet
  facet normal 0 -1 0
    outer loop
      vertex 51 12.2 3.2
      vertex 0 12.2 4
      vertex 49 12.2 3.2
    endloop
  endfacet
  facet normal 0 -1 0
    outer loop
      vertex 0 12.2 4
      vertex 51 12.2 3.2
      vertex 198.333 12.2 4
    endloop
  endfacet
  facet normal 0 -1 0
    outer loop
      vertex 65.6667 12.2 3.2
      vertex 198.333 12.2 4
      vertex 51 12.2 3.2
    endloop
  endfacet
  facet normal 0 -1 0
    outer loop
      vertex 67.6667 12.2 3.2
      vertex 198.333 12.2 4
      vertex 65.6667 12.2 3.2
    endloop
  endfacet
  facet normal 0 -1 0
    outer loop
      vertex 82.3333 12.2 3.2
      vertex 198.333 12.2 4
      vertex 67.6667 12.2 3.2
    endloop
  endfacet
  facet normal 0 -1 0
    outer loop
      vertex 84.3333 12.2 3.2
      vertex 198.333 12.2 4
      vertex 82.3333 12.2 3.2
    endloop
  endfacet
  facet normal 0 -1 0
    outer loop
      vertex 99 12.2 3.2
      vertex 198.333 12.2 4
      vertex 84.3333 12.2 3.2
    endloop
  endfacet
  facet normal 0 -1 0
    outer loop
      vertex 101 12.2 3.2
      vertex 198.333 12.2 4
      vertex 99 12.2 3.2
    endloop
  endfacet
  facet normal 0 -1 0
    outer loop
      vertex 115.667 12.2 3.2
      vertex 198.333 12.2 4
      vertex 101 12.2 3.2
    endloop
  endfacet
  facet normal 0 -1 0
    outer loop
      vertex 117.667 12.2 3.2
      vertex 198.333 12.2 4
      vertex 115.667 12.2 3.2
    endloop
  endfacet
  facet normal 0 -1 0
    outer loop
      vertex 132.333 12.2 3.2
      vertex 198.333 12.2 4
      vertex 117.667 12.2 3.2
    endloop
  endfacet
  facet normal 0 -1 0
    outer loop
      vertex 134.333 12.2 3.2
      vertex 198.333 12.2 4
      vertex 132.333 12.2 3.2
    endloop
  endfacet
  facet normal 0 -1 0
    outer loop
      vertex 149 12.2 3.2
      vertex 198.333 12.2 4
      vertex 134.333 12.2 3.2
    endloop
  endfacet
  facet normal 0 -1 0
    outer loop
      vertex 151 12.2 3.2
      vertex 198.333 12.2 4
      vertex 149 12.2 3.2
    endloop
  endfacet
  facet normal 0 -1 0
    outer loop
      vertex 165.667 12.2 3.2
      vertex 198.333 12.2 4
      vertex 151 12.2 3.2
    endloop
  endfacet
  facet normal 0 -1 0
    outer loop
      vertex 167.667 12.2 3.2
      vertex 198.333 12.2 4
      vertex 165.667 12.2 3.2
    endloop
  endfacet
  facet normal 0 -1 0
    outer loop
      vertex 198.333 12.2 1.2
      vertex 167.667 12.2 3.2
      vertex 167.667 12.2 1.2
    endloop
  endfacet
  facet normal 0 -1 0
    outer loop
      vertex 167.667 12.2 3.2
      vertex 198.333 12.2 1.2
      vertex 198.333 12.2 4
    endloop
  endfacet
  facet normal 0 -1 0
    outer loop
      vertex 49 12.2 1.2
      vertex 51 12.2 3.2
      vertex 49 12.2 3.2
    endloop
  endfacet
  facet normal 0 -1 -0
    outer loop
      vertex 51 12.2 3.2
      vertex 49 12.2 1.2
      vertex 51 12.2 1.2
    endloop
  endfacet
  facet normal 0 -1 0
    outer loop
      vertex 165.667 12.2 1.2
      vertex 167.667 12.2 3.2
      vertex 165.667 12.2 3.2
    endloop
  endfacet
  facet normal 0 -1 -0
    outer loop
      vertex 167.667 12.2 3.2
      vertex 165.667 12.2 1.2
      vertex 167.667 12.2 1.2
    endloop
  endfacet
  facet normal 0 -1 0
    outer loop
      vertex 99 12.2 1.2
      vertex 101 12.2 3.2
      vertex 99 12.2 3.2
    endloop
  endfacet
  facet normal 0 -1 -0
    outer loop
      vertex 101 12.2 3.2
      vertex 99 12.2 1.2
      vertex 101 12.2 1.2
    endloop
  endfacet
  facet normal 0 -1 0
    outer loop
      vertex 15.6667 12.2 1.2
      vertex 17.6667 12.2 3.2
      vertex 15.6667 12.2 3.2
    endloop
  endfacet
  facet normal 0 -1 -0
    outer loop
      vertex 17.6667 12.2 3.2
      vertex 15.6667 12.2 1.2
      vertex 17.6667 12.2 1.2
    endloop
  endfacet
  facet normal 0 -1 0
    outer loop
      vertex 115.667 12.2 1.2
      vertex 117.667 12.2 3.2
      vertex 115.667 12.2 3.2
    endloop
  endfacet
  facet normal 0 -1 -0
    outer loop
      vertex 117.667 12.2 3.2
      vertex 115.667 12.2 1.2
      vertex 117.667 12.2 1.2
    endloop
  endfacet
  facet normal 0 -1 0
    outer loop
      vertex 149 12.2 1.2
      vertex 151 12.2 3.2
      vertex 149 12.2 3.2
    endloop
  endfacet
  facet normal 0 -1 -0
    outer loop
      vertex 151 12.2 3.2
      vertex 149 12.2 1.2
      vertex 151 12.2 1.2
    endloop
  endfacet
  facet normal 0 -1 0
    outer loop
      vertex 82.3333 12.2 1.2
      vertex 84.3333 12.2 3.2
      vertex 82.3333 12.2 3.2
    endloop
  endfacet
  facet normal 0 -1 -0
    outer loop
      vertex 84.3333 12.2 3.2
      vertex 82.3333 12.2 1.2
      vertex 84.3333 12.2 1.2
    endloop
  endfacet
  facet normal 0 -1 0
    outer loop
      vertex 32.3333 12.2 1.2
      vertex 34.3333 12.2 3.2
      vertex 32.3333 12.2 3.2
    endloop
  endfacet
  facet normal 0 -1 -0
    outer loop
      vertex 34.3333 12.2 3.2
      vertex 32.3333 12.2 1.2
      vertex 34.3333 12.2 1.2
    endloop
  endfacet
  facet normal 0 -1 0
    outer loop
      vertex 65.6667 12.2 1.2
      vertex 67.6667 12.2 3.2
      vertex 65.6667 12.2 3.2
    endloop
  endfacet
  facet normal 0 -1 -0
    outer loop
      vertex 67.6667 12.2 3.2
      vertex 65.6667 12.2 1.2
      vertex 67.6667 12.2 1.2
    endloop
  endfacet
  facet normal 0 -1 0
    outer loop
      vertex 132.333 12.2 1.2
      vertex 134.333 12.2 3.2
      vertex 132.333 12.2 3.2
    endloop
  endfacet
  facet normal 0 -1 -0
    outer loop
      vertex 134.333 12.2 3.2
      vertex 132.333 12.2 1.2
      vertex 134.333 12.2 1.2
    endloop
  endfacet
  facet normal -0 0 1
    outer loop
      vertex 15.6667 12.2 1.2
      vertex 17.6667 9.9 1.2
      vertex 17.6667 12.2 1.2
    endloop
  endfacet
  facet normal 0 0 1
    outer loop
      vertex 15.6667 12.2 1.2
      vertex 15.6667 9.9 1.2
      vertex 17.6667 9.9 1.2
    endloop
  endfacet
  facet normal -0 0 1
    outer loop
      vertex 0 12.2 1.2
      vertex 15.6667 9.9 1.2
      vertex 15.6667 12.2 1.2
    endloop
  endfacet
  facet normal 0 0 1
    outer loop
      vertex 0 9.8 1.2
      vertex 15.6667 9.9 1.2
      vertex 0 12.2 1.2
    endloop
  endfacet
  facet normal 0 0 1
    outer loop
      vertex 15.6667 9.9 1.2
      vertex 0 9.8 1.2
      vertex 15.6667 9.8 1.2
    endloop
  endfacet
  facet normal -0 0 1
    outer loop
      vertex 32.3333 12.2 1.2
      vertex 34.3333 9.9 1.2
      vertex 34.3333 12.2 1.2
    endloop
  endfacet
  facet normal 0 0 1
    outer loop
      vertex 32.3333 12.2 1.2
      vertex 32.3333 9.9 1.2
      vertex 34.3333 9.9 1.2
    endloop
  endfacet
  facet normal -0 0 1
    outer loop
      vertex 17.6667 12.2 1.2
      vertex 32.3333 9.9 1.2
      vertex 32.3333 12.2 1.2
    endloop
  endfacet
  facet normal 0 0 1
    outer loop
      vertex 17.6667 9.9 1.2
      vertex 32.3333 9.9 1.2
      vertex 17.6667 12.2 1.2
    endloop
  endfacet
  facet normal 0 0 1
    outer loop
      vertex 32.3333 9.9 1.2
      vertex 17.6667 9.9 1.2
      vertex 32.3333 9.8 1.2
    endloop
  endfacet
  facet normal 0 0 1
    outer loop
      vertex 32.3333 9.8 1.2
      vertex 17.6667 9.9 1.2
      vertex 17.6667 9.8 1.2
    endloop
  endfacet
  facet normal -0 0 1
    outer loop
      vertex 49 12.2 1.2
      vertex 51 9.9 1.2
      vertex 51 12.2 1.2
    endloop
  endfacet
  facet normal 0 0 1
    outer loop
      vertex 49 12.2 1.2
      vertex 49 9.9 1.2
      vertex 51 9.9 1.2
    endloop
  endfacet
  facet normal -0 0 1
    outer loop
      vertex 34.3333 12.2 1.2
      vertex 49 9.9 1.2
      vertex 49 12.2 1.2
    endloop
  endfacet
  facet normal 0 0 1
    outer loop
      vertex 34.3333 9.9 1.2
      vertex 49 9.9 1.2
      vertex 34.3333 12.2 1.2
    endloop
  endfacet
  facet normal 0 0 1
    outer loop
      vertex 49 9.9 1.2
      vertex 34.3333 9.9 1.2
      vertex 49 9.8 1.2
    endloop
  endfacet
  facet normal 0 0 1
    outer loop
      vertex 49 9.8 1.2
      vertex 34.3333 9.9 1.2
      vertex 34.3333 9.8 1.2
    endloop
  endfacet
  facet normal -0 0 1
    outer loop
      vertex 65.6667 12.2 1.2
      vertex 67.6667 9.9 1.2
      vertex 67.6667 12.2 1.2
    endloop
  endfacet
  facet normal 0 0 1
    outer loop
      vertex 65.6667 12.2 1.2
      vertex 65.6667 9.9 1.2
      vertex 67.6667 9.9 1.2
    endloop
  endfacet
  facet normal -0 0 1
    outer loop
      vertex 51 12.2 1.2
      vertex 65.6667 9.9 1.2
      vertex 65.6667 12.2 1.2
    endloop
  endfacet
  facet normal 0 0 1
    outer loop
      vertex 51 9.9 1.2
      vertex 65.6667 9.9 1.2
      vertex 51 12.2 1.2
    endloop
  endfacet
  facet normal 0 0 1
    outer loop
      vertex 65.6667 9.9 1.2
      vertex 51 9.9 1.2
      vertex 65.6667 9.8 1.2
    endloop
  endfacet
  facet normal 0 0 1
    outer loop
      vertex 65.6667 9.8 1.2
      vertex 51 9.9 1.2
      vertex 51 9.8 1.2
    endloop
  endfacet
  facet normal -0 0 1
    outer loop
      vertex 82.3333 12.2 1.2
      vertex 84.3333 9.9 1.2
      vertex 84.3333 12.2 1.2
    endloop
  endfacet
  facet normal 0 0 1
    outer loop
      vertex 82.3333 12.2 1.2
      vertex 82.3333 9.9 1.2
      vertex 84.3333 9.9 1.2
    endloop
  endfacet
  facet normal -0 0 1
    outer loop
      vertex 67.6667 12.2 1.2
      vertex 82.3333 9.9 1.2
      vertex 82.3333 12.2 1.2
    endloop
  endfacet
  facet normal 0 0 1
    outer loop
      vertex 67.6667 9.9 1.2
      vertex 82.3333 9.9 1.2
      vertex 67.6667 12.2 1.2
    endloop
  endfacet
  facet normal 0 0 1
    outer loop
      vertex 82.3333 9.9 1.2
      vertex 67.6667 9.9 1.2
      vertex 82.3333 9.8 1.2
    endloop
  endfacet
  facet normal 0 0 1
    outer loop
      vertex 82.3333 9.8 1.2
      vertex 67.6667 9.9 1.2
      vertex 67.6667 9.8 1.2
    endloop
  endfacet
  facet normal -0 0 1
    outer loop
      vertex 99 12.2 1.2
      vertex 101 9.9 1.2
      vertex 101 12.2 1.2
    endloop
  endfacet
  facet normal 0 0 1
    outer loop
      vertex 99 12.2 1.2
      vertex 99 9.9 1.2
      vertex 101 9.9 1.2
    endloop
  endfacet
  facet normal -0 0 1
    outer loop
      vertex 84.3333 12.2 1.2
      vertex 99 9.9 1.2
      vertex 99 12.2 1.2
    endloop
  endfacet
  facet normal 0 0 1
    outer loop
      vertex 84.3333 9.9 1.2
      vertex 99 9.9 1.2
      vertex 84.3333 12.2 1.2
    endloop
  endfacet
  facet normal 0 0 1
    outer loop
      vertex 99 9.9 1.2
      vertex 84.3333 9.9 1.2
      vertex 99 9.8 1.2
    endloop
  endfacet
  facet normal 0 0 1
    outer loop
      vertex 99 9.8 1.2
      vertex 84.3333 9.9 1.2
      vertex 84.3333 9.8 1.2
    endloop
  endfacet
  facet normal -0 0 1
    outer loop
      vertex 115.667 12.2 1.2
      vertex 117.667 9.9 1.2
      vertex 117.667 12.2 1.2
    endloop
  endfacet
  facet normal 0 0 1
    outer loop
      vertex 115.667 12.2 1.2
      vertex 115.667 9.9 1.2
      vertex 117.667 9.9 1.2
    endloop
  endfacet
  facet normal -0 0 1
    outer loop
      vertex 101 12.2 1.2
      vertex 115.667 9.9 1.2
      vertex 115.667 12.2 1.2
    endloop
  endfacet
  facet normal 0 0 1
    outer loop
      vertex 101 9.9 1.2
      vertex 115.667 9.9 1.2
      vertex 101 12.2 1.2
    endloop
  endfacet
  facet normal 0 0 1
    outer loop
      vertex 115.667 9.9 1.2
      vertex 101 9.9 1.2
      vertex 115.667 9.8 1.2
    endloop
  endfacet
  facet normal 0 0 1
    outer loop
      vertex 115.667 9.8 1.2
      vertex 101 9.9 1.2
      vertex 101 9.8 1.2
    endloop
  endfacet
  facet normal -0 0 1
    outer loop
      vertex 132.333 12.2 1.2
      vertex 134.333 9.9 1.2
      vertex 134.333 12.2 1.2
    endloop
  endfacet
  facet normal 0 0 1
    outer loop
      vertex 132.333 12.2 1.2
      vertex 132.333 9.9 1.2
      vertex 134.333 9.9 1.2
    endloop
  endfacet
  facet normal -0 0 1
    outer loop
      vertex 117.667 12.2 1.2
      vertex 132.333 9.9 1.2
      vertex 132.333 12.2 1.2
    endloop
  endfacet
  facet normal 0 0 1
    outer loop
      vertex 117.667 9.9 1.2
      vertex 132.333 9.9 1.2
      vertex 117.667 12.2 1.2
    endloop
  endfacet
  facet normal 0 0 1
    outer loop
      vertex 132.333 9.9 1.2
      vertex 117.667 9.9 1.2
      vertex 132.333 9.8 1.2
    endloop
  endfacet
  facet normal 0 0 1
    outer loop
      vertex 132.333 9.8 1.2
      vertex 117.667 9.9 1.2
      vertex 117.667 9.8 1.2
    endloop
  endfacet
  facet normal -0 0 1
    outer loop
      vertex 149 12.2 1.2
      vertex 151 9.9 1.2
      vertex 151 12.2 1.2
    endloop
  endfacet
  facet normal 0 0 1
    outer loop
      vertex 149 12.2 1.2
      vertex 149 9.9 1.2
      vertex 151 9.9 1.2
    endloop
  endfacet
  facet normal -0 0 1
    outer loop
      vertex 134.333 12.2 1.2
      vertex 149 9.9 1.2
      vertex 149 12.2 1.2
    endloop
  endfacet
  facet normal 0 0 1
    outer loop
      vertex 134.333 9.9 1.2
      vertex 149 9.9 1.2
      vertex 134.333 12.2 1.2
    endloop
  endfacet
  facet normal 0 0 1
    outer loop
      vertex 149 9.9 1.2
      vertex 134.333 9.9 1.2
      vertex 149 9.8 1.2
    endloop
  endfacet
  facet normal 0 0 1
    outer loop
      vertex 149 9.8 1.2
      vertex 134.333 9.9 1.2
      vertex 134.333 9.8 1.2
    endloop
  endfacet
  facet normal -0 0 1
    outer loop
      vertex 165.667 12.2 1.2
      vertex 167.667 9.9 1.2
      vertex 167.667 12.2 1.2
    endloop
  endfacet
  facet normal 0 0 1
    outer loop
      vertex 165.667 12.2 1.2
      vertex 165.667 9.9 1.2
      vertex 167.667 9.9 1.2
    endloop
  endfacet
  facet normal -0 0 1
    outer loop
      vertex 151 12.2 1.2
      vertex 165.667 9.9 1.2
      vertex 165.667 12.2 1.2
    endloop
  endfacet
  facet normal 0 0 1
    outer loop
      vertex 151 9.9 1.2
      vertex 165.667 9.9 1.2
      vertex 151 12.2 1.2
    endloop
  endfacet
  facet normal 0 0 1
    outer loop
      vertex 165.667 9.9 1.2
      vertex 151 9.9 1.2
      vertex 165.667 9.8 1.2
    endloop
  endfacet
  facet normal 0 0 1
    outer loop
      vertex 165.667 9.8 1.2
      vertex 151 9.9 1.2
      vertex 151 9.8 1.2
    endloop
  endfacet
  facet normal -0 0 1
    outer loop
      vertex 167.667 12.2 1.2
      vertex 198.333 9.8 1.2
      vertex 198.333 12.2 1.2
    endloop
  endfacet
  facet normal -0 0 1
    outer loop
      vertex 167.667 9.9 1.2
      vertex 198.333 9.8 1.2
      vertex 167.667 12.2 1.2
    endloop
  endfacet
  facet normal 0 0 1
    outer loop
      vertex 198.333 9.8 1.2
      vertex 167.667 9.9 1.2
      vertex 167.667 9.8 1.2
    endloop
  endfacet
  facet normal 0 1 -0
    outer loop
      vertex 32.3333 9.8 1.2
      vertex 17.6667 9.8 3.2
      vertex 32.3333 9.8 3.2
    endloop
  endfacet
  facet normal 0 1 0
    outer loop
      vertex 17.6667 9.8 3.2
      vertex 32.3333 9.8 1.2
      vertex 17.6667 9.8 1.2
    endloop
  endfacet
  facet normal 0 1 -0
    outer loop
      vertex 49 9.8 1.2
      vertex 34.3333 9.8 3.2
      vertex 49 9.8 3.2
    endloop
  endfacet
  facet normal 0 1 0
    outer loop
      vertex 34.3333 9.8 3.2
      vertex 49 9.8 1.2
      vertex 34.3333 9.8 1.2
    endloop
  endfacet
  facet normal 0 1 -0
    outer loop
      vertex 65.6667 9.8 1.2
      vertex 51 9.8 3.2
      vertex 65.6667 9.8 3.2
    endloop
  endfacet
  facet normal 0 1 0
    outer loop
      vertex 51 9.8 3.2
      vertex 65.6667 9.8 1.2
      vertex 51 9.8 1.2
    endloop
  endfacet
  facet normal 0 1 -0
    outer loop
      vertex 82.3333 9.8 1.2
      vertex 67.6667 9.8 3.2
      vertex 82.3333 9.8 3.2
    endloop
  endfacet
  facet normal 0 1 0
    outer loop
      vertex 67.6667 9.8 3.2
      vertex 82.3333 9.8 1.2
      vertex 67.6667 9.8 1.2
    endloop
  endfacet
  facet normal 0 1 -0
    outer loop
      vertex 99 9.8 1.2
      vertex 84.3333 9.8 3.2
      vertex 99 9.8 3.2
    endloop
  endfacet
  facet normal 0 1 0
    outer loop
      vertex 84.3333 9.8 3.2
      vertex 99 9.8 1.2
      vertex 84.3333 9.8 1.2
    endloop
  endfacet
  facet normal 0 1 -0
    outer loop
      vertex 115.667 9.8 1.2
      vertex 101 9.8 3.2
      vertex 115.667 9.8 3.2
    endloop
  endfacet
  facet normal 0 1 0
    outer loop
      vertex 101 9.8 3.2
      vertex 115.667 9.8 1.2
      vertex 101 9.8 1.2
    endloop
  endfacet
  facet normal 0 1 -0
    outer loop
      vertex 132.333 9.8 1.2
      vertex 117.667 9.8 3.2
      vertex 132.333 9.8 3.2
    endloop
  endfacet
  facet normal 0 1 0
    outer loop
      vertex 117.667 9.8 3.2
      vertex 132.333 9.8 1.2
      vertex 117.667 9.8 1.2
    endloop
  endfacet
  facet normal 0 1 -0
    outer loop
      vertex 149 9.8 1.2
      vertex 134.333 9.8 3.2
      vertex 149 9.8 3.2
    endloop
  endfacet
  facet normal 0 1 0
    outer loop
      vertex 134.333 9.8 3.2
      vertex 149 9.8 1.2
      vertex 134.333 9.8 1.2
    endloop
  endfacet
  facet normal 0 1 -0
    outer loop
      vertex 165.667 9.8 1.2
      vertex 151 9.8 3.2
      vertex 165.667 9.8 3.2
    endloop
  endfacet
  facet normal 0 1 0
    outer loop
      vertex 151 9.8 3.2
      vertex 165.667 9.8 1.2
      vertex 151 9.8 1.2
    endloop
  endfacet
  facet normal 0 1 0
    outer loop
      vertex 165.667 9.8 3.2
      vertex 198.333 9.8 4
      vertex 167.667 9.8 3.2
    endloop
  endfacet
  facet normal 0 1 -0
    outer loop
      vertex 198.333 9.8 1.2
      vertex 167.667 9.8 3.2
      vertex 198.333 9.8 4
    endloop
  endfacet
  facet normal 0 1 0
    outer loop
      vertex 167.667 9.8 3.2
      vertex 198.333 9.8 1.2
      vertex 167.667 9.8 1.2
    endloop
  endfacet
  facet normal 0 1 0
    outer loop
      vertex 151 9.8 3.2
      vertex 198.333 9.8 4
      vertex 165.667 9.8 3.2
    endloop
  endfacet
  facet normal 0 1 0
    outer loop
      vertex 149 9.8 3.2
      vertex 198.333 9.8 4
      vertex 151 9.8 3.2
    endloop
  endfacet
  facet normal 0 1 0
    outer loop
      vertex 134.333 9.8 3.2
      vertex 198.333 9.8 4
      vertex 149 9.8 3.2
    endloop
  endfacet
  facet normal 0 1 0
    outer loop
      vertex 198.333 9.8 4
      vertex 134.333 9.8 3.2
      vertex 0 9.8 4
    endloop
  endfacet
  facet normal 0 1 -0
    outer loop
      vertex 132.333 9.8 3.2
      vertex 0 9.8 4
      vertex 134.333 9.8 3.2
    endloop
  endfacet
  facet normal 0 1 -0
    outer loop
      vertex 117.667 9.8 3.2
      vertex 0 9.8 4
      vertex 132.333 9.8 3.2
    endloop
  endfacet
  facet normal 0 1 -0
    outer loop
      vertex 115.667 9.8 3.2
      vertex 0 9.8 4
      vertex 117.667 9.8 3.2
    endloop
  endfacet
  facet normal 0 1 -0
    outer loop
      vertex 101 9.8 3.2
      vertex 0 9.8 4
      vertex 115.667 9.8 3.2
    endloop
  endfacet
  facet normal 0 1 -0
    outer loop
      vertex 99 9.8 3.2
      vertex 0 9.8 4
      vertex 101 9.8 3.2
    endloop
  endfacet
  facet normal 0 1 -0
    outer loop
      vertex 84.3333 9.8 3.2
      vertex 0 9.8 4
      vertex 99 9.8 3.2
    endloop
  endfacet
  facet normal 0 1 -0
    outer loop
      vertex 82.3333 9.8 3.2
      vertex 0 9.8 4
      vertex 84.3333 9.8 3.2
    endloop
  endfacet
  facet normal 0 1 -0
    outer loop
      vertex 67.6667 9.8 3.2
      vertex 0 9.8 4
      vertex 82.3333 9.8 3.2
    endloop
  endfacet
  facet normal 0 1 -0
    outer loop
      vertex 65.6667 9.8 3.2
      vertex 0 9.8 4
      vertex 67.6667 9.8 3.2
    endloop
  endfacet
  facet normal 0 1 -0
    outer loop
      vertex 51 9.8 3.2
      vertex 0 9.8 4
      vertex 65.6667 9.8 3.2
    endloop
  endfacet
  facet normal 0 1 -0
    outer loop
      vertex 49 9.8 3.2
      vertex 0 9.8 4
      vertex 51 9.8 3.2
    endloop
  endfacet
  facet normal 0 1 -0
    outer loop
      vertex 34.3333 9.8 3.2
      vertex 0 9.8 4
      vertex 49 9.8 3.2
    endloop
  endfacet
  facet normal 0 1 -0
    outer loop
      vertex 32.3333 9.8 3.2
      vertex 0 9.8 4
      vertex 34.3333 9.8 3.2
    endloop
  endfacet
  facet normal 0 1 -0
    outer loop
      vertex 17.6667 9.8 3.2
      vertex 0 9.8 4
      vertex 32.3333 9.8 3.2
    endloop
  endfacet
  facet normal 0 1 -0
    outer loop
      vertex 15.6667 9.8 3.2
      vertex 0 9.8 4
      vertex 17.6667 9.8 3.2
    endloop
  endfacet
  facet normal 0 1 0
    outer loop
      vertex 0 9.8 1.2
      vertex 15.6667 9.8 3.2
      vertex 15.6667 9.8 1.2
    endloop
  endfacet
  facet normal 0 1 0
    outer loop
      vertex 15.6667 9.8 3.2
      vertex 0 9.8 1.2
      vertex 0 9.8 4
    endloop
  endfacet
  facet normal -1 0 0
    outer loop
      vertex 15.6667 9.8 1.2
      vertex 15.6667 9.9 3.2
      vertex 15.6667 9.9 1.2
    endloop
  endfacet
  facet normal -1 -0 0
    outer loop
      vertex 15.6667 9.9 3.2
      vertex 15.6667 9.8 1.2
      vertex 15.6667 9.8 3.2
    endloop
  endfacet
  facet normal -0 0 1
    outer loop
      vertex 15.6667 9.9 3.2
      vertex 17.6667 9.8 3.2
      vertex 17.6667 9.9 3.2
    endloop
  endfacet
  facet normal 0 0 1
    outer loop
      vertex 17.6667 9.8 3.2
      vertex 15.6667 9.9 3.2
      vertex 15.6667 9.8 3.2
    endloop
  endfacet
  facet normal 1 -0 0
    outer loop
      vertex 17.6667 9.8 3.2
      vertex 17.6667 9.9 1.2
      vertex 17.6667 9.9 3.2
    endloop
  endfacet
  facet normal 1 0 0
    outer loop
      vertex 17.6667 9.9 1.2
      vertex 17.6667 9.8 3.2
      vertex 17.6667 9.8 1.2
    endloop
  endfacet
  facet normal 0 1 -0
    outer loop
      vertex 17.6667 9.9 1.2
      vertex 15.6667 9.9 3.2
      vertex 17.6667 9.9 3.2
    endloop
  endfacet
  facet normal 0 1 0
    outer loop
      vertex 15.6667 9.9 3.2
      vertex 17.6667 9.9 1.2
      vertex 15.6667 9.9 1.2
    endloop
  endfacet
  facet normal -1 0 0
    outer loop
      vertex 32.3333 9.8 1.2
      vertex 32.3333 9.9 3.2
      vertex 32.3333 9.9 1.2
    endloop
  endfacet
  facet normal -1 -0 0
    outer loop
      vertex 32.3333 9.9 3.2
      vertex 32.3333 9.8 1.2
      vertex 32.3333 9.8 3.2
    endloop
  endfacet
  facet normal -0 0 1
    outer loop
      vertex 32.3333 9.9 3.2
      vertex 34.3333 9.8 3.2
      vertex 34.3333 9.9 3.2
    endloop
  endfacet
  facet normal 0 0 1
    outer loop
      vertex 34.3333 9.8 3.2
      vertex 32.3333 9.9 3.2
      vertex 32.3333 9.8 3.2
    endloop
  endfacet
  facet normal 1 -0 0
    outer loop
      vertex 34.3333 9.8 3.2
      vertex 34.3333 9.9 1.2
      vertex 34.3333 9.9 3.2
    endloop
  endfacet
  facet normal 1 0 0
    outer loop
      vertex 34.3333 9.9 1.2
      vertex 34.3333 9.8 3.2
      vertex 34.3333 9.8 1.2
    endloop
  endfacet
  facet normal 0 1 -0
    outer loop
      vertex 34.3333 9.9 1.2
      vertex 32.3333 9.9 3.2
      vertex 34.3333 9.9 3.2
    endloop
  endfacet
  facet normal 0 1 0
    outer loop
      vertex 32.3333 9.9 3.2
      vertex 34.3333 9.9 1.2
      vertex 32.3333 9.9 1.2
    endloop
  endfacet
  facet normal -1 0 0
    outer loop
      vertex 49 9.8 1.2
      vertex 49 9.9 3.2
      vertex 49 9.9 1.2
    endloop
  endfacet
  facet normal -1 -0 0
    outer loop
      vertex 49 9.9 3.2
      vertex 49 9.8 1.2
      vertex 49 9.8 3.2
    endloop
  endfacet
  facet normal -0 0 1
    outer loop
      vertex 49 9.9 3.2
      vertex 51 9.8 3.2
      vertex 51 9.9 3.2
    endloop
  endfacet
  facet normal 0 0 1
    outer loop
      vertex 51 9.8 3.2
      vertex 49 9.9 3.2
      vertex 49 9.8 3.2
    endloop
  endfacet
  facet normal 1 -0 0
    outer loop
      vertex 51 9.8 3.2
      vertex 51 9.9 1.2
      vertex 51 9.9 3.2
    endloop
  endfacet
  facet normal 1 0 0
    outer loop
      vertex 51 9.9 1.2
      vertex 51 9.8 3.2
      vertex 51 9.8 1.2
    endloop
  endfacet
  facet normal 0 1 -0
    outer loop
      vertex 51 9.9 1.2
      vertex 49 9.9 3.2
      vertex 51 9.9 3.2
    endloop
  endfacet
  facet normal 0 1 0
    outer loop
      vertex 49 9.9 3.2
      vertex 51 9.9 1.2
      vertex 49 9.9 1.2
    endloop
  endfacet
  facet normal -1 0 0
    outer loop
      vertex 65.6667 9.8 1.2
      vertex 65.6667 9.9 3.2
      vertex 65.6667 9.9 1.2
    endloop
  endfacet
  facet normal -1 -0 0
    outer loop
      vertex 65.6667 9.9 3.2
      vertex 65.6667 9.8 1.2
      vertex 65.6667 9.8 3.2
    endloop
  endfacet
  facet normal -0 0 1
    outer loop
      vertex 65.6667 9.9 3.2
      vertex 67.6667 9.8 3.2
      vertex 67.6667 9.9 3.2
    endloop
  endfacet
  facet normal 0 0 1
    outer loop
      vertex 67.6667 9.8 3.2
      vertex 65.6667 9.9 3.2
      vertex 65.6667 9.8 3.2
    endloop
  endfacet
  facet normal 1 -0 0
    outer loop
      vertex 67.6667 9.8 3.2
      vertex 67.6667 9.9 1.2
      vertex 67.6667 9.9 3.2
    endloop
  endfacet
  facet normal 1 0 0
    outer loop
      vertex 67.6667 9.9 1.2
      vertex 67.6667 9.8 3.2
      vertex 67.6667 9.8 1.2
    endloop
  endfacet
  facet normal 0 1 -0
    outer loop
      vertex 67.6667 9.9 1.2
      vertex 65.6667 9.9 3.2
      vertex 67.6667 9.9 3.2
    endloop
  endfacet
  facet normal 0 1 0
    outer loop
      vertex 65.6667 9.9 3.2
      vertex 67.6667 9.9 1.2
      vertex 65.6667 9.9 1.2
    endloop
  endfacet
  facet normal -1 0 0
    outer loop
      vertex 82.3333 9.8 1.2
      vertex 82.3333 9.9 3.2
      vertex 82.3333 9.9 1.2
    endloop
  endfacet
  facet normal -1 -0 0
    outer loop
      vertex 82.3333 9.9 3.2
      vertex 82.3333 9.8 1.2
      vertex 82.3333 9.8 3.2
    endloop
  endfacet
  facet normal -0 0 1
    outer loop
      vertex 82.3333 9.9 3.2
      vertex 84.3333 9.8 3.2
      vertex 84.3333 9.9 3.2
    endloop
  endfacet
  facet normal 0 0 1
    outer loop
      vertex 84.3333 9.8 3.2
      vertex 82.3333 9.9 3.2
      vertex 82.3333 9.8 3.2
    endloop
  endfacet
  facet normal 1 -0 0
    outer loop
      vertex 84.3333 9.8 3.2
      vertex 84.3333 9.9 1.2
      vertex 84.3333 9.9 3.2
    endloop
  endfacet
  facet normal 1 0 0
    outer loop
      vertex 84.3333 9.9 1.2
      vertex 84.3333 9.8 3.2
      vertex 84.3333 9.8 1.2
    endloop
  endfacet
  facet normal 0 1 -0
    outer loop
      vertex 84.3333 9.9 1.2
      vertex 82.3333 9.9 3.2
      vertex 84.3333 9.9 3.2
    endloop
  endfacet
  facet normal 0 1 0
    outer loop
      vertex 82.3333 9.9 3.2
      vertex 84.3333 9.9 1.2
      vertex 82.3333 9.9 1.2
    endloop
  endfacet
  facet normal -1 0 0
    outer loop
      vertex 99 9.8 1.2
      vertex 99 9.9 3.2
      vertex 99 9.9 1.2
    endloop
  endfacet
  facet normal -1 -0 0
    outer loop
      vertex 99 9.9 3.2
      vertex 99 9.8 1.2
      vertex 99 9.8 3.2
    endloop
  endfacet
  facet normal -0 0 1
    outer loop
      vertex 99 9.9 3.2
      vertex 101 9.8 3.2
      vertex 101 9.9 3.2
    endloop
  endfacet
  facet normal 0 0 1
    outer loop
      vertex 101 9.8 3.2
      vertex 99 9.9 3.2
      vertex 99 9.8 3.2
    endloop
  endfacet
  facet normal 1 -0 0
    outer loop
      vertex 101 9.8 3.2
      vertex 101 9.9 1.2
      vertex 101 9.9 3.2
    endloop
  endfacet
  facet normal 1 0 0
    outer loop
      vertex 101 9.9 1.2
      vertex 101 9.8 3.2
      vertex 101 9.8 1.2
    endloop
  endfacet
  facet normal 0 1 -0
    outer loop
      vertex 101 9.9 1.2
      vertex 99 9.9 3.2
      vertex 101 9.9 3.2
    endloop
  endfacet
  facet normal 0 1 0
    outer loop
      vertex 99 9.9 3.2
      vertex 101 9.9 1.2
      vertex 99 9.9 1.2
    endloop
  endfacet
  facet normal -1 0 0
    outer loop
      vertex 115.667 9.8 1.2
      vertex 115.667 9.9 3.2
      vertex 115.667 9.9 1.2
    endloop
  endfacet
  facet normal -1 -0 0
    outer loop
      vertex 115.667 9.9 3.2
      vertex 115.667 9.8 1.2
      vertex 115.667 9.8 3.2
    endloop
  endfacet
  facet normal -0 0 1
    outer loop
      vertex 115.667 9.9 3.2
      vertex 117.667 9.8 3.2
      vertex 117.667 9.9 3.2
    endloop
  endfacet
  facet normal 0 0 1
    outer loop
      vertex 117.667 9.8 3.2
      vertex 115.667 9.9 3.2
      vertex 115.667 9.8 3.2
    endloop
  endfacet
  facet normal 1 -0 0
    outer loop
      vertex 117.667 9.8 3.2
      vertex 117.667 9.9 1.2
      vertex 117.667 9.9 3.2
    endloop
  endfacet
  facet normal 1 0 0
    outer loop
      vertex 117.667 9.9 1.2
      vertex 117.667 9.8 3.2
      vertex 117.667 9.8 1.2
    endloop
  endfacet
  facet normal 0 1 -0
    outer loop
      vertex 117.667 9.9 1.2
      vertex 115.667 9.9 3.2
      vertex 117.667 9.9 3.2
    endloop
  endfacet
  facet normal 0 1 0
    outer loop
      vertex 115.667 9.9 3.2
      vertex 117.667 9.9 1.2
      vertex 115.667 9.9 1.2
    endloop
  endfacet
  facet normal -1 0 0
    outer loop
      vertex 132.333 9.8 1.2
      vertex 132.333 9.9 3.2
      vertex 132.333 9.9 1.2
    endloop
  endfacet
  facet normal -1 -0 0
    outer loop
      vertex 132.333 9.9 3.2
      vertex 132.333 9.8 1.2
      vertex 132.333 9.8 3.2
    endloop
  endfacet
  facet normal -0 0 1
    outer loop
      vertex 132.333 9.9 3.2
      vertex 134.333 9.8 3.2
      vertex 134.333 9.9 3.2
    endloop
  endfacet
  facet normal 0 0 1
    outer loop
      vertex 134.333 9.8 3.2
      vertex 132.333 9.9 3.2
      vertex 132.333 9.8 3.2
    endloop
  endfacet
  facet normal 1 -0 0
    outer loop
      vertex 134.333 9.8 3.2
      vertex 134.333 9.9 1.2
      vertex 134.333 9.9 3.2
    endloop
  endfacet
  facet normal 1 0 0
    outer loop
      vertex 134.333 9.9 1.2
      vertex 134.333 9.8 3.2
      vertex 134.333 9.8 1.2
    endloop
  endfacet
  facet normal 0 1 -0
    outer loop
      vertex 134.333 9.9 1.2
      vertex 132.333 9.9 3.2
      vertex 134.333 9.9 3.2
    endloop
  endfacet
  facet normal 0 1 0
    outer loop
      vertex 132.333 9.9 3.2
      vertex 134.333 9.9 1.2
      vertex 132.333 9.9 1.2
    endloop
  endfacet
  facet normal -1 0 0
    outer loop
      vertex 149 9.8 1.2
      vertex 149 9.9 3.2
      vertex 149 9.9 1.2
    endloop
  endfacet
  facet normal -1 -0 0
    outer loop
      vertex 149 9.9 3.2
      vertex 149 9.8 1.2
      vertex 149 9.8 3.2
    endloop
  endfacet
  facet normal -0 0 1
    outer loop
      vertex 149 9.9 3.2
      vertex 151 9.8 3.2
      vertex 151 9.9 3.2
    endloop
  endfacet
  facet normal 0 0 1
    outer loop
      vertex 151 9.8 3.2
      vertex 149 9.9 3.2
      vertex 149 9.8 3.2
    endloop
  endfacet
  facet normal 1 -0 0
    outer loop
      vertex 151 9.8 3.2
      vertex 151 9.9 1.2
      vertex 151 9.9 3.2
    endloop
  endfacet
  facet normal 1 0 0
    outer loop
      vertex 151 9.9 1.2
      vertex 151 9.8 3.2
      vertex 151 9.8 1.2
    endloop
  endfacet
  facet normal 0 1 -0
    outer loop
      vertex 151 9.9 1.2
      vertex 149 9.9 3.2
      vertex 151 9.9 3.2
    endloop
  endfacet
  facet normal 0 1 0
    outer loop
      vertex 149 9.9 3.2
      vertex 151 9.9 1.2
      vertex 149 9.9 1.2
    endloop
  endfacet
  facet normal -1 0 0
    outer loop
      vertex 165.667 9.8 1.2
      vertex 165.667 9.9 3.2
      vertex 165.667 9.9 1.2
    endloop
  endfacet
  facet normal -1 -0 0
    outer loop
      vertex 165.667 9.9 3.2
      vertex 165.667 9.8 1.2
      vertex 165.667 9.8 3.2
    endloop
  endfacet
  facet normal -0 0 1
    outer loop
      vertex 165.667 9.9 3.2
      vertex 167.667 9.8 3.2
      vertex 167.667 9.9 3.2
    endloop
  endfacet
  facet normal 0 0 1
    outer loop
      vertex 167.667 9.8 3.2
      vertex 165.667 9.9 3.2
      vertex 165.667 9.8 3.2
    endloop
  endfacet
  facet normal 1 -0 0
    outer loop
      vertex 167.667 9.8 3.2
      vertex 167.667 9.9 1.2
      vertex 167.667 9.9 3.2
    endloop
  endfacet
  facet normal 1 0 0
    outer loop
      vertex 167.667 9.9 1.2
      vertex 167.667 9.8 3.2
      vertex 167.667 9.8 1.2
    endloop
  endfacet
  facet normal 0 1 -0
    outer loop
      vertex 167.667 9.9 1.2
      vertex 165.667 9.9 3.2
      vertex 167.667 9.9 3.2
    endloop
  endfacet
  facet normal 0 1 0
    outer loop
      vertex 165.667 9.9 3.2
      vertex 167.667 9.9 1.2
      vertex 165.667 9.9 1.2
    endloop
  endfacet
endsolid OpenSCAD_Model
